<svg width="384" height="281" fill="none" xmlns="http://www.w3.org/2000/svg"><rect width="166" height="208" rx="3" transform="matrix(1 0 0 -1 142.4 281)" fill="url(#a)"/><g opacity=".1" filter="url(#b)"><path d="M299 74H149a8 8 0 00-8 8v191h158V74z" fill="url(#c)"/></g><rect opacity=".5" x="108.4" y="43" width="166" height="208" rx="3" fill="url(#d)"/><path d="M286.4 263.5h-159c-2 0-3.5-1.5-3.5-3.4V61.9c0-2 1.5-3.4 3.4-3.4h159c2 0 3.5 1.5 3.5 3.4V260c0 1.9-1.5 3.4-3.4 3.4z" fill="url(#e)" stroke="url(#f)"/><path fill-rule="evenodd" clip-rule="evenodd" d="M274.5 183.2a1 1 0 00-1-1H142.3a1 1 0 00-1 1v3.9c0 .5.5.9 1 .9h131.2a1 1 0 001-1v-3.8zm-.1-13.7a1 1 0 00-1-1H142.3a1 1 0 00-1 1v3.8c0 .5.5 1 1 1h131.1a1 1 0 001-1v-3.8zm0-13.8a1 1 0 00-1-1H142.3a1 1 0 00-1 1v3.8c0 .6.5 1 1 1h131.1a1 1 0 001-1v-3.8zM199.5 142a1 1 0 00-1-1h-56.2a1 1 0 00-1 1v3.8c0 .5.5 1 1 1h56.3a1 1 0 001-1V142zm0-13.8a1 1 0 00-1-1h-56.2a1 1 0 00-1 1v3.8c0 .6.5 1 1 1h56.3a1 1 0 001-1v-3.8zm0-13.7a1 1 0 00-1-1h-56.2a1 1 0 00-1 1v3.8c0 .5.5 1 1 1h56.3a1 1 0 001-1v-3.8zm0-13.8a1 1 0 00-1-1h-56.2a1 1 0 00-1 1v3.8c0 .6.5 1 1 1h56.3a1 1 0 001-1v-3.8zm0-13.8a1 1 0 00-1-.9h-56.2a1 1 0 00-1 1v3.8c0 .5.5 1 1 1h56.3a1 1 0 001-1v-3.9z" fill="url(#g)"/><path d="M142.3 196.3h131.2c.5 0 1 .4 1 1v3.8a1 1 0 01-1 .9H142.3a1 1 0 01-1-1v-3.8c0-.5.5-1 1-1z" fill="url(#h)"/><path d="M142.3 212.3h86.2c.5 0 1 .4 1 1v3.8a1 1 0 01-1 .9h-86.2a1 1 0 01-1-1v-3.8c0-.5.5-1 1-1z" fill="url(#i)"/><path d="M142.3 227.3h86.2c.5 0 1 .4 1 1v3.8a1 1 0 01-1 .9h-86.2a1 1 0 01-1-1v-3.8c0-.5.5-1 1-1z" fill="url(#j)"/><path d="M213.4 86.2h57a2.9 2.9 0 012.8 2.8v54.8a2.9 2.9 0 01-2.8 2.8h-57a2.9 2.9 0 01-2.9-2.8V89a2.9 2.9 0 012.9-2.8z" fill="#D8E5F1" stroke="url(#k)"/><path fill-rule="evenodd" clip-rule="evenodd" d="M219.5 127.8a.3.3 0 01-.2-.4l14.4-19.2a.3.3 0 01.5 0l10 12.2a.3.3 0 00.4 0l5.3-6.6a.3.3 0 01.5 0l11.8 13.5a.3.3 0 01-.2.5h-42.5zm40.7-24.9c0-2.7-2.4-5-5.3-5a5.1 5.1 0 00-5.2 5c0 2.8 2.3 5 5.2 5 3 0 5.3-2.2 5.3-5z" fill="#fff"/><path opacity=".4" fill-rule="evenodd" clip-rule="evenodd" d="M281.5 195.2a3.5 3.5 0 00-3.5-3.6h-14.1l-23 23a14 14 0 00-2 2.6l-.3.5-.5 1-.2.5-.6 1.4-3 10.6-2.8 2.7a2.6 2.6 0 103.7 3.7l2.8-2.7 10.5-3a13.7 13.7 0 001.5-.6l.5-.2 1-.5.4-.3a14 14 0 002.6-2l27-27v-6.1z" fill="url(#l)"/><path fill-rule="evenodd" clip-rule="evenodd" d="M243.9 226.5l-10.7 7.5c-1.1.8-2.4 0-2.3-1.3l1.1-13c.2-2.3 1-4.6 2.2-6.7l27.6-48 14.5 8.4-27.7 48c-1.2 2-2.8 3.8-4.7 5.1z" fill="url(#m)"/><path fill-rule="evenodd" clip-rule="evenodd" d="M243.9 226.5l-10.7 7.5c-1.1.8-2.4 0-2.3-1.3l1.1-13c.2-2.3 1-4.6 2.2-6.7l27.6-48 14.5 8.4-27.7 48c-1.2 2-2.8 3.8-4.7 5.1z" fill="url(#n)" fill-opacity=".3"/><path fill-rule="evenodd" clip-rule="evenodd" d="M275 170.9l-10.3-6 3-5.2c.5-1 2-1.1 3.2-.4l5.8 3.4c1.3.7 1.9 2 1.3 3l-3 5.2z" fill="url(#o)"/><path fill-rule="evenodd" clip-rule="evenodd" d="M275.5 175l-14.7-8.5 1.7-2.9c.5-.8 1.4-1 2.2-.6l12 7c.7.3 1 1.3.5 2.1l-1.7 2.9z" fill="url(#p)"/><path fill-rule="evenodd" clip-rule="evenodd" d="M233.3 214.7a16.1 16.1 0 00-1.3 5l-1.1 13c-.1 1.3 1.2 2 2.3 1.3l10.7-7.4a16.1 16.1 0 003.7-3.7l-14.3-8.2z" fill="url(#q)"/><path fill-rule="evenodd" clip-rule="evenodd" d="M229.7 237.4c-1-.6-1.3-2-.6-3.2l2-3.5 3.7 2.2-2 3.4c-.7 1.2-2 1.6-3 1z" fill="url(#r)"/><path d="M139.4 180.5c0-.3.2-.5.4-.5h79c.3 0 .6.2.6.5v9c0 .3-.3.5-.5.5h-79a.5.5 0 01-.5-.5v-9zm0-14c0-.3.2-.5.4-.5h37c.3 0 .6.2.6.5v9c0 .3-.3.5-.5.5h-37a.5.5 0 01-.5-.5v-9z" fill="#9B51E0" opacity=".8"/><path d="M142.4 205h89m-90 16h87m-50 15h50.1m44.9-31h-12" stroke="#3CA9E7" stroke-width="2.1" stroke-miterlimit="10" stroke-linecap="round"/><path d="M147.4 107.2s-.3-5.9 4-5.6c4.7.3 5.7 11.9 4.7 19.8-1.3 9.7 7-26.6 29.7-35.4" stroke="#FF238D" stroke-width="2.8" stroke-miterlimit="10" stroke-linecap="round"/><g clip-path="url(#s)"><path fill="#AECDE2" fill-opacity=".1" stroke="#159CDC" stroke-width="1.3" d="M2.1 86.2h132v60.7H2.2z"/><path fill="#495F6C" d="M61 123h2.1v16.9H61z"/><circle cx="2.6" cy="85.6" r="1.9" fill="#F5F8FA" stroke="#159CDC" stroke-width="1.3"/><circle cx="68.8" cy="85.6" r="1.9" fill="#F5F8FA" stroke="#159CDC" stroke-width="1.3"/><circle cx="134" cy="85.6" r="1.9" fill="#F5F8FA" stroke="#159CDC" stroke-width="1.3"/><circle cx="2.6" cy="146.3" r="1.9" fill="#F5F8FA" stroke="#159CDC" stroke-width="1.3"/><circle cx="68.8" cy="146.3" r="1.9" fill="#F5F8FA" stroke="#159CDC" stroke-width="1.3"/><circle cx="134" cy="146.3" r="1.9" fill="#F5F8FA" stroke="#159CDC" stroke-width="1.3"/><circle cx="2.6" cy="116.2" r="1.9" fill="#F5F8FA" stroke="#159CDC" stroke-width="1.3"/><circle cx="134" cy="116.2" r="1.9" fill="#F5F8FA" stroke="#159CDC" stroke-width="1.3"/></g><path d="M10.9 105.6h111.4c.6 0 1-.5 1-1.1v-8.3c0-.6-.4-1-1-1H11a1 1 0 00-1 1v8.3c0 .6.4 1 1 1zm0 15.5h111.4c.6 0 1-.5 1-1v-8.3c0-.6-.4-1-1-1H11a1 1 0 00-1 1v8.3c0 .5.4 1 1 1zm0 15.6h44.6c.6 0 1-.5 1-1v-8.4c0-.6-.4-1-1-1H10.9a1 1 0 00-1 1v8.3c0 .6.4 1 1 1z" fill="#DAE7EF"/><g filter="url(#t)" fill="#A9B8C2"><path d="M128.9 15.6h1.7v17.1h-1.7V15.6z"/><path fill-rule="evenodd" clip-rule="evenodd" d="M121.5 25.1h3.4l-1.6-4-1.8 4zm4.8 3l-.7-1.4h-4.7l-1.2 2.6H118l4-9.8c.3-.3.6-.5 1-.5h.8c.3 0 .7.3.9.5l1.7 4.2v-6.4H118a2 2 0 00-1.9 1.9v10a2 2 0 002 1.8h8v-2.8h.2z"/></g><g filter="url(#u)" fill-rule="evenodd" clip-rule="evenodd" fill="#A9B8C2"><path d="M163 30.6c.4.3.5 1 .2 1.4a1 1 0 01-1.4.1 5.8 5.8 0 00-1.8-.8c-2.8-.8-4-.3-5.8.5l-.6.2c-.6.3-1.4.6-2.2.6-.6 0-1.2-.2-1.7-.6-.2-.2-.7-.7-.8-1.5 0-.4.2-.8.5-1.2l.8-.7a1 1 0 011.4.2c.3.5.2 1.2-.2 1.5a1.2 1.2 0 00-.3.2c.2.1.7.2 2-.3l.4-.2c2-.9 3.7-1.5 7.1-.6a7 7 0 012.4 1.2z"/><path d="M165.2 18.7c0 .4-.2.9-.6 1.2l-7.9 8-.3.2-3.8.8-.6-.1c-.2-.2-.2-.3-.2-.6l.7-3.9.3-.3 7.9-8c.7-.6 1.9-.6 2.6 0l1.4 1.5c.3.1.5.6.5 1.2zm-4.5 2.8l-1.6-1.6-5 5 1.6 1.5 5-5zm2.7-2.8l-1.5-1.6-1.5 1.5L162 20l1.4-1.4z"/></g><g filter="url(#v)"><path fill-rule="evenodd" clip-rule="evenodd" d="M197.7 17.8v2.5a.4.4 0 01-.3.3h-.7a.4.4 0 01-.4-.4v-1h-3.8v10h1.3c.2 0 .4.1.4.3v.7a.4.4 0 01-.4.4h-5a.4.4 0 01-.3-.4v-.7c0-.2.2-.3.4-.3h1.3v-10h-3.8v1a.4.4 0 01-.3.4h-.8a.4.4 0 01-.3-.4v-2.4c0-.2.1-.4.3-.4h12a.4.4 0 01.4.4z" fill="#A9B8C2"/></g><g filter="url(#w)"><path fill-rule="evenodd" clip-rule="evenodd" d="M234.2 19.5a.7.7 0 00-1 0l-5.8 5.8-3.6-3.5a1.4 1.4 0 00-1-.4 1.5 1.5 0 00-1 .4l-5.8 5.8a.7.7 0 00-.2.5.7.7 0 00.2.5l.5.5c.3.3.7.3 1 0l5.3-5.3 3.5 3.6a1.5 1.5 0 002 0l6.4-6.4a.7.7 0 00.2-.4.7.7 0 00-.2-.5l-.5-.6z" fill="#A9B8C2"/></g><path d="M383 218a1.3 1.3 0 010 1.9l-2.4 2.5a1.3 1.3 0 01-1.9 0l-21-21a1.3 1.3 0 010-1.8l2.6-2.5a1.3 1.3 0 011.8 0l21 21z" fill="url(#x)"/><path fill-rule="evenodd" clip-rule="evenodd" d="M340.6 207.2a27.6 27.6 0 100-55.2 27.6 27.6 0 000 55.2zm-22-27.6a22 22 0 0122-22 22 22 0 0115.6 6.4 22 22 0 016.5 15.6 22 22 0 01-44.2 0z" fill="url(#y)"/><path opacity=".2" d="M340.6 201.7a22 22 0 100-44.2 22 22 0 000 44.2z" fill="url(#z)"/><path d="M333 172.2a2 2 0 100-4.1 2 2 0 000 4.1z" fill="#fff"/><path fill="url(#A)" d="M57.7 164.7h38V202h-38z"/><path fill="#9FCCE6" d="M57.7 164.7h38v6.7h-38z"/><path fill="url(#B)" fill-opacity=".4" d="M59.7 164.7H94v35.8H59.7z"/><path d="M55.7 167.7h38L90 198.2H52l3.7-30.5z" fill="url(#C)"/><path fill-rule="evenodd" clip-rule="evenodd" d="M85 173H68.7v2h16l.3-2zm-.9 5.2H65.7v2.1h18l.4-2.1zm-.9 5.3H60.5v2H83l.3-2z" fill="url(#D)"/><path fill="#9FCCE6" d="M55.7 161h38v6.7h-38z"/><defs><linearGradient id="a" x1="83" y1="208" x2="83" y2="0" gradientUnits="userSpaceOnUse"><stop stop-color="#E1EAF0"/><stop offset="1" stop-color="#F8FBFD"/></linearGradient><linearGradient id="c" x1="252.9" y1="97" x2="234.2" y2="284.4" gradientUnits="userSpaceOnUse"><stop stop-color="#364F7F" stop-opacity=".5"/><stop offset=".2" stop-color="#364F7F" stop-opacity=".3"/><stop offset="1" stop-color="#364F7F" stop-opacity=".3"/></linearGradient><linearGradient id="d" x1="191.4" y1="251" x2="191.4" y2="43" gradientUnits="userSpaceOnUse"><stop stop-color="#DBE2E8"/><stop offset="1" stop-color="#EDF4F9"/></linearGradient><linearGradient id="e" x1="206.9" y1="58" x2="206.9" y2="264" gradientUnits="userSpaceOnUse"><stop stop-color="#fff"/><stop offset="1" stop-color="#F1F6FB"/></linearGradient><linearGradient id="f" x1="206.9" y1="58" x2="206.9" y2="264" gradientUnits="userSpaceOnUse"><stop stop-color="#C7D4DF"/><stop offset="1" stop-color="#D0D7DD" stop-opacity=".5"/></linearGradient><linearGradient id="g" x1="228.9" y1="238.5" x2="168.2" y2="87.6" gradientUnits="userSpaceOnUse"><stop stop-color="#DCE5ED"/><stop offset="1" stop-color="#F3F7FB"/></linearGradient><linearGradient id="h" x1="228.9" y1="238.5" x2="168.2" y2="87.6" gradientUnits="userSpaceOnUse"><stop stop-color="#DCE5ED"/><stop offset="1" stop-color="#F3F7FB"/></linearGradient><linearGradient id="i" x1="228.9" y1="238.5" x2="168.2" y2="87.6" gradientUnits="userSpaceOnUse"><stop stop-color="#DCE5ED"/><stop offset="1" stop-color="#F3F7FB"/></linearGradient><linearGradient id="j" x1="228.9" y1="238.5" x2="168.2" y2="87.6" gradientUnits="userSpaceOnUse"><stop stop-color="#DCE5ED"/><stop offset="1" stop-color="#F3F7FB"/></linearGradient><linearGradient id="k" x1="241.9" y1="85.7" x2="241.9" y2="147.1" gradientUnits="userSpaceOnUse"><stop stop-color="#D1E6F2"/><stop offset="1" stop-color="#C5DFED"/></linearGradient><linearGradient id="l" x1="241.6" y1="238.4" x2="277" y2="191.6" gradientUnits="userSpaceOnUse"><stop stop-color="#364F7F" stop-opacity=".6"/><stop offset=".2" stop-color="#364F7F" stop-opacity=".3"/><stop offset="1" stop-color="#364F7F" stop-opacity="0"/></linearGradient><linearGradient id="m" x1="231.6" y1="234.1" x2="269" y2="169.3" gradientUnits="userSpaceOnUse"><stop stop-color="#09BDF8"/><stop offset="1" stop-color="#1591D4"/></linearGradient><linearGradient id="n" x1="266" y1="191.9" x2="251.9" y2="183.3" gradientUnits="userSpaceOnUse"><stop stop-color="#1C568C"/><stop offset=".3" stop-color="#123555"/><stop offset="1" stop-color="#40A3FF" stop-opacity="0"/></linearGradient><linearGradient id="o" x1="267.1" y1="161.7" x2="276.6" y2="167.2" gradientUnits="userSpaceOnUse"><stop offset="0" stop-color="#96A5BC"/><stop offset="1" stop-color="#4F6587"/></linearGradient><linearGradient id="p" x1="268.2" y1="170.7" x2="270.7" y2="166.4" gradientUnits="userSpaceOnUse"><stop stop-color="#BACEE2"/><stop offset="1" stop-color="#ABC3DD"/></linearGradient><linearGradient id="q" x1="231.6" y1="234.1" x2="240.4" y2="218.8" gradientUnits="userSpaceOnUse"><stop stop-color="#FF9057"/><stop offset="1" stop-color="#FFCB5D"/></linearGradient><linearGradient id="r" x1="229.7" y1="233.6" x2="233" y2="235.5" gradientUnits="userSpaceOnUse"><stop offset="0" stop-color="#96A5BC"/><stop offset="1" stop-color="#4F6587"/></linearGradient><linearGradient id="x" x1="372.2" y1="207.3" x2="368" y2="211.6" gradientUnits="userSpaceOnUse"><stop stop-color="#7392AF"/><stop offset=".8" stop-color="#5192B6"/><stop offset="1" stop-color="#B2C8CB"/></linearGradient><linearGradient id="y" x1="340.6" y1="152" x2="340.6" y2="207.2" gradientUnits="userSpaceOnUse"><stop stop-color="#5197B6"/><stop offset="1" stop-color="#9CC3DF"/></linearGradient><linearGradient id="A" x1="76.7" y1="164.7" x2="76.7" y2="202" gradientUnits="userSpaceOnUse"><stop stop-color="#ADD5EB"/><stop offset="1" stop-color="#CCE1EC"/></linearGradient><linearGradient id="B" x1="76.8" y1="164.7" x2="76.8" y2="200.5" gradientUnits="userSpaceOnUse"><stop stop-color="#316677"/><stop offset="1" stop-color="#315177" stop-opacity="0"/></linearGradient><linearGradient id="C" x1="72.9" y1="167.7" x2="72.9" y2="198.2" gradientUnits="userSpaceOnUse"><stop stop-color="#ADD5EB"/><stop offset="1" stop-color="#CCE1EC"/></linearGradient><linearGradient id="D" x1="70.6" y1="186.6" x2="74.1" y2="172.1" gradientUnits="userSpaceOnUse"><stop stop-color="#9FC1D3"/><stop offset="1" stop-color="#A1CBD0" stop-opacity=".4"/></linearGradient><filter id="b" x="137" y="70" width="166" height="207" filterUnits="userSpaceOnUse" color-interpolation-filters="sRGB"><feFlood flood-opacity="0" result="BackgroundImageFix"/><feBlend in="SourceGraphic" in2="BackgroundImageFix" result="shape"/><feGaussianBlur stdDeviation="2" result="effect1_foregroundBlur_1025_76754"/></filter><filter id="t" x="92.4" y="-3" width="62" height="62" filterUnits="userSpaceOnUse" color-interpolation-filters="sRGB"><feFlood flood-opacity="0" result="BackgroundImageFix"/><feColorMatrix in="SourceAlpha" values="0 0 0 0 0 0 0 0 0 0 0 0 0 0 0 0 0 0 127 0" result="hardAlpha"/><feOffset dy="8"/><feGaussianBlur stdDeviation="6"/><feColorMatrix values="0 0 0 0 0.101961 0 0 0 0 0.286275 0 0 0 0 0.443137 0 0 0 0.06 0"/><feBlend in2="BackgroundImageFix" result="effect1_dropShadow_1025_76754"/><feColorMatrix in="SourceAlpha" values="0 0 0 0 0 0 0 0 0 0 0 0 0 0 0 0 0 0 127 0" result="hardAlpha"/><feOffset dy="4"/><feGaussianBlur stdDeviation="8"/><feColorMatrix values="0 0 0 0 0.101961 0 0 0 0 0.286275 0 0 0 0 0.443137 0 0 0 0.04 0"/><feBlend in2="effect1_dropShadow_1025_76754" result="effect2_dropShadow_1025_76754"/><feBlend in="SourceGraphic" in2="effect2_dropShadow_1025_76754" result="shape"/></filter><filter id="u" x="126.4" y="-3" width="62" height="62" filterUnits="userSpaceOnUse" color-interpolation-filters="sRGB"><feFlood flood-opacity="0" result="BackgroundImageFix"/><feColorMatrix in="SourceAlpha" values="0 0 0 0 0 0 0 0 0 0 0 0 0 0 0 0 0 0 127 0" result="hardAlpha"/><feOffset dy="8"/><feGaussianBlur stdDeviation="6"/><feColorMatrix values="0 0 0 0 0.101961 0 0 0 0 0.286275 0 0 0 0 0.443137 0 0 0 0.06 0"/><feBlend in2="BackgroundImageFix" result="effect1_dropShadow_1025_76754"/><feColorMatrix in="SourceAlpha" values="0 0 0 0 0 0 0 0 0 0 0 0 0 0 0 0 0 0 127 0" result="hardAlpha"/><feOffset dy="4"/><feGaussianBlur stdDeviation="8"/><feColorMatrix values="0 0 0 0 0.101961 0 0 0 0 0.286275 0 0 0 0 0.443137 0 0 0 0.04 0"/><feBlend in2="effect1_dropShadow_1025_76754" result="effect2_dropShadow_1025_76754"/><feBlend in="SourceGraphic" in2="effect2_dropShadow_1025_76754" result="shape"/></filter><filter id="v" x="160.4" y="-3" width="62" height="62" filterUnits="userSpaceOnUse" color-interpolation-filters="sRGB"><feFlood flood-opacity="0" result="BackgroundImageFix"/><feColorMatrix in="SourceAlpha" values="0 0 0 0 0 0 0 0 0 0 0 0 0 0 0 0 0 0 127 0" result="hardAlpha"/><feOffset dy="8"/><feGaussianBlur stdDeviation="6"/><feColorMatrix values="0 0 0 0 0.101961 0 0 0 0 0.286275 0 0 0 0 0.443137 0 0 0 0.06 0"/><feBlend in2="BackgroundImageFix" result="effect1_dropShadow_1025_76754"/><feColorMatrix in="SourceAlpha" values="0 0 0 0 0 0 0 0 0 0 0 0 0 0 0 0 0 0 127 0" result="hardAlpha"/><feOffset dy="4"/><feGaussianBlur stdDeviation="8"/><feColorMatrix values="0 0 0 0 0.101961 0 0 0 0 0.286275 0 0 0 0 0.443137 0 0 0 0.04 0"/><feBlend in2="effect1_dropShadow_1025_76754" result="effect2_dropShadow_1025_76754"/><feBlend in="SourceGraphic" in2="effect2_dropShadow_1025_76754" result="shape"/></filter><filter id="w" x="194.4" y="-3" width="62" height="62" filterUnits="userSpaceOnUse" color-interpolation-filters="sRGB"><feFlood flood-opacity="0" result="BackgroundImageFix"/><feColorMatrix in="SourceAlpha" values="0 0 0 0 0 0 0 0 0 0 0 0 0 0 0 0 0 0 127 0" result="hardAlpha"/><feOffset dy="8"/><feGaussianBlur stdDeviation="6"/><feColorMatrix values="0 0 0 0 0.101961 0 0 0 0 0.286275 0 0 0 0 0.443137 0 0 0 0.06 0"/><feBlend in2="BackgroundImageFix" result="effect1_dropShadow_1025_76754"/><feColorMatrix in="SourceAlpha" values="0 0 0 0 0 0 0 0 0 0 0 0 0 0 0 0 0 0 127 0" result="hardAlpha"/><feOffset dy="4"/><feGaussianBlur stdDeviation="8"/><feColorMatrix values="0 0 0 0 0.101961 0 0 0 0 0.286275 0 0 0 0 0.443137 0 0 0 0.04 0"/><feBlend in2="effect1_dropShadow_1025_76754" result="effect2_dropShadow_1025_76754"/><feBlend in="SourceGraphic" in2="effect2_dropShadow_1025_76754" result="shape"/></filter><radialGradient id="z" cx="0" cy="0" r="1" gradientUnits="userSpaceOnUse" gradientTransform="translate(338.9 177) scale(22.0451)"><stop stop-color="#738FAF"/><stop offset=".7" stop-color="#486796"/><stop offset="1" stop-color="#B2BCCB"/></radialGradient><clipPath id="s"><path fill="#fff" transform="translate(0 83)" d="M0 0h137.3v66H0z"/></clipPath></defs></svg>