<svg width="438" height="238" fill="none" xmlns="http://www.w3.org/2000/svg"><g clip-path="url(#a)"><rect x="36.5" y="-.5" width="330" height="235.5" rx="4.5" fill="url(#b)" stroke="url(#c)"/><g opacity=".1" filter="url(#d)"><path d="M240 56a8 8 0 00-8-8H93a8 8 0 00-8 8v164a8 8 0 008 8h139a8 8 0 008-8V56z" fill="url(#e)"/></g><path d="M276 0h78.8C361 0 366 5 366 11.2v212c0 6.3-5 11.3-11.2 11.3H276V0z" fill="url(#f)"/><path d="M37 4a4 4 0 014-4h321a4 4 0 014 4v20.6H37V4z" fill="#E2EDF4"/><path fill-rule="evenodd" clip-rule="evenodd" d="M57.3 8.4a12.5 12.5 0 00-7.5-3 .8.8 0 00-.8.7V12a.9.9 0 00.8.8c.6 0 1.2.2 1.7.3v4.5a.8.8 0 00.5.7.8.8 0 00.3 0 9.5 9.5 0 005-2 12.5 12.5 0 007.4 3.2.8.8 0 00.8-.7v-6a.9.9 0 00-.8-.8l-1.7-.2V7.2a.8.8 0 00-.8-.7 9.5 9.5 0 00-5 2zm-7 3.1V6.8a.1.1 0 010-.2 11.2 11.2 0 016 2.7 8 8 0 01-4.1 1.6.8.8 0 00-.7.8v.1a12.5 12.5 0 00-1.1-.2.1.1 0 01-.2 0zm11.5-.1a11.3 11.3 0 01-3.6-2.1l.5-.4a8.2 8.2 0 013-1v3.5zm-.1 1.3a9.2 9.2 0 00-4.4 2 12.5 12.5 0 00-4.5-2.6 9.2 9.2 0 004.5-2c1.3 1.2 2.8 2 4.4 2.6zm-3.5 2.8a8 8 0 014.1-1.6.8.8 0 00.7-.8l1.2.1a.1.1 0 010 .1v4.8a.1.1 0 010 .1 11.2 11.2 0 01-6-2.7zm-1.9 0a8 8 0 01-.5.4 8.2 8.2 0 01-2.9 1 .1.1 0 01-.1 0v-3.4a11.3 11.3 0 013.5 2z" fill="#C6D2DD"/><rect x="75" y="9.6" width="22.6" height="5.7" rx="2.8" fill="#F9FCFF"/><rect x="101.4" y="9.6" width="22.6" height="5.7" rx="2.8" fill="#F9FCFF"/><rect x="127.8" y="9.6" width="22.6" height="5.7" rx="2.8" fill="#F9FCFF"/><rect x="154.2" y="9.6" width="22.6" height="5.7" rx="2.8" fill="#F9FCFF"/><rect x="261.7" y="8.5" width="94" height="7.8" rx="3.9" fill="#F8FAFD"/><rect x="287.2" y="38.2" width="67.7" height="17" rx="1.9" fill="#EBF2F7"/><path d="M307.4 67c-.8 0-1.4.8-1.4 1.7v6c0 1 .6 1.7 1.4 1.7H353c.7 0 1.4-.8 1.4-1.7v-6c0-1-.7-1.7-1.4-1.7h-45.7z" fill="url(#g)"/><path d="M307.4 87.9c-.8 0-1.4.7-1.4 1.7v6c0 .9.6 1.7 1.4 1.7H353c.7 0 1.4-.8 1.4-1.7v-6c0-1-.7-1.7-1.4-1.7h-45.7z" fill="url(#h)"/><path d="M306 109.5c0-1 .6-1.7 1.4-1.7H353c.7 0 1.4.7 1.4 1.7v6c0 .9-.7 1.6-1.4 1.6h-45.7c-.8 0-1.4-.7-1.4-1.7v-6z" fill="url(#i)"/><path d="M307.4 127.7c-.8 0-1.4.7-1.4 1.7v6c0 .9.6 1.6 1.4 1.6H353c.7 0 1.4-.7 1.4-1.7v-6c0-.9-.7-1.6-1.4-1.6h-45.7z" fill="url(#j)"/><path d="M298 149.2c0-.9.6-1.7 1.4-1.7H353c.7 0 1.4.8 1.4 1.7v6c0 1-.7 1.7-1.4 1.7h-53.7c-.8 0-1.4-.8-1.4-1.7v-6z" fill="url(#k)"/><path d="M307.4 167.4c-.8 0-1.4.8-1.4 1.7v6c0 1 .6 1.7 1.4 1.7H353c.7 0 1.4-.8 1.4-1.7v-6c0-1-.7-1.7-1.4-1.7h-45.7z" fill="url(#l)"/><path d="M232.6 211.7c0 1.6-1.3 2.9-3 2.9H95.4c-1.6 0-2.9-1.3-2.9-2.9V44.3c0-1.6 1.3-2.9 3-2.9h134.3c1.6 0 2.9 1.3 2.9 2.9v167.4z" fill="url(#m)" stroke="url(#n)" stroke-width=".9"/><path stroke="#D0DAE5" d="M177.5 76.5h39v26h-39z"/><path fill="#E7EDF3" d="M178 77h38v5h-38z"/><path stroke="#D0DAE5" d="M197.5 77v25M216 89.5h-38m38 7h-38m38-14h-38"/><path fill-rule="evenodd" clip-rule="evenodd" d="M202 154.4l-10.6 19H214v.6a22 22 0 11-12-19.6z" fill="#EAEAEA"/><path fill-rule="evenodd" clip-rule="evenodd" d="M204 156l-8.3 15h17.5a22 22 0 00-9.1-15z" fill="#B7DFF0"/><path fill="#DAE2EB" d="M109.9 62h47.4v6.5H110z"/><path fill-rule="evenodd" clip-rule="evenodd" d="M159 154a.8.8 0 00-.8-.9h-47.6a.8.8 0 00-.7.8v3c0 .5.3.9.7.9h47.6a.8.8 0 00.7-.8v-3zm57.8-11.2a.8.8 0 00-.7-.7H110.6a.8.8 0 00-.7.7v3.1c0 .5.3.8.7.8h105.5c.4 0 .7-.3.7-.8v-3zm0-11a.8.8 0 00-.7-.8H110.6a.8.8 0 00-.7.8v3c0 .5.3.8.7.8h105.5c.4 0 .7-.3.7-.7v-3.1zm.2-11a.8.8 0 00-.8-.8H110.6a.8.8 0 00-.7.7v3.1c0 .4.3.8.7.8h105.6a.8.8 0 00.8-.8v-3zm0-11.1a.8.8 0 00-.8-.8H110.6a.8.8 0 00-.7.8v3c0 .5.3.8.7.8h105.6c.4 0 .8-.3.8-.7v-3.1zm-47-11a.8.8 0 00-.8-.9h-58.6a.8.8 0 00-.7.8v3c0 .5.3.9.7.9h58.6a.8.8 0 00.8-.8v-3zm0-11.2a.8.8 0 00-.8-.7h-58.6a.8.8 0 00-.7.7v3.1c0 .5.3.8.7.8h58.6a.8.8 0 00.8-.8v-3zm0-11a.8.8 0 00-.8-.8h-58.6a.8.8 0 00-.7.8v3c0 .5.3.8.7.8h58.6c.4 0 .8-.3.8-.7v-3.1z" fill="url(#o)"/><path d="M110.6 164.4h47.6c.4 0 .7.3.7.8v3c0 .5-.3.8-.7.8h-47.6a.8.8 0 01-.7-.7v-3.1a.8.8 0 01.7-.8z" fill="url(#p)"/><path d="M110.6 177.3H158c.4 0 .8.3.8.7v3.1a.8.8 0 01-.8.8h-47.4a.8.8 0 01-.7-.8v-3c0-.5.3-.8.7-.8z" fill="url(#q)"/><path d="M110.6 189.3H158a.8.8 0 01.7.8v3a.8.8 0 01-.7.8h-47.3a.8.8 0 01-.7-.7V190a.8.8 0 01.7-.8z" fill="url(#r)"/><path d="M395 142l13.5 21.7h-10.1c0 12.3-10 22.4-22.4 22.4v-6.9a15.4 15.4 0 0015.5-15.5h-10.1l13.5-21.7z" fill="url(#s)"/><path d="M395 142l13.5 21.7h-10.1c0 12.3-10 22.4-22.4 22.4v-6.9a15.4 15.4 0 0015.5-15.5h-10.1l13.5-21.7z" fill="url(#t)" fill-opacity=".3"/><g filter="url(#u)" fill="#A9B8C2"><path d="M11.9 164.4l3.7-1.8-3.7-2v1.3H5.3v2.5h1.4v-1.1H12v1.1z"/><path fill-rule="evenodd" clip-rule="evenodd" d="M5.9 165.6l.6.3 2.3 2.2a1 1 0 01.3.7v6.7c0 .5-.5.9-1 .9H1.6a1 1 0 01-1-1v-8.9c0-.5.4-.9 1-.9h4.3zm-3.6 1.9v7.3h5.1v-5.2h-2v-2.1H2.2zm14.5-1.6a1 1 0 00-.6-.3h-4.3a1 1 0 00-1 1v8.9c0 .5.5.9 1 .9h6.5c.6 0 1-.4 1-1v-6.6a1 1 0 00-.3-.7l-2.3-2.2zm-4.2 8.9v-7.3h3v2h2.1v5.3h-5.1z"/><path d="M8.1 181.3v-1.2h7v-2.5h-1.3v1.1H8v-1.1l-3.7 1.8 3.7 2z"/></g><g filter="url(#v)"><path fill-rule="evenodd" clip-rule="evenodd" d="M14.3 213.3v-8.2a.2.2 0 00-.2-.1l-4.3-4.3-.1-.2H4.2c-.7 0-1.3.6-1.4 1.3v11.5c0 .8.6 1.5 1.4 1.5h8.6c.9 0 1.5-.7 1.5-1.5zm-9.7-11.2h4v3.3c0 .4.4.7.7.7h3.3v6.9h-8v-11zM17 207v9.2a1.4 1.4 0 01-1.4 1.5H9.2V216h6.2v-9h1.7z" fill="#A9B8C2"/></g><g opacity=".7" filter="url(#w)"><path d="M377 39h-29a8 8 0 00-8 8v81h37V39z" fill="url(#x)"/></g><rect x="350.6" y="28.6" width="87.3" height="105.9" rx="1.6" fill="url(#y)" stroke="url(#z)" stroke-width="1.1"/><path d="M393.7 115.9h-1.4a.5.5 0 00-.5.5v3.9h-3.3v-14.5h5.2c2.3 0 3.9.4 5 1.3 1 .8 1.5 2 1.5 3.6s-.6 2.9-1.7 3.8c-1 .9-2.7 1.4-4.8 1.4zm0-7.5h-1.4a.5.5 0 00-.5.6v3.9c0 .3.2.5.5.5h1.4c1 0 1.8-.2 2.4-.6.5-.5.8-1.2.8-2 0-.7-.3-1.3-.8-1.7-.6-.5-1.4-.7-2.4-.7zm13.7 11.9h-5v-14.5h5c2.9 0 5.1.6 6.6 1.7 1.4 1.1 2.2 2.9 2.2 5.4 0 2.3-.8 4.2-2.2 5.4-1.4 1.3-3.6 2-6.6 2zm0-11.8h-1.2a.5.5 0 00-.6.5v8c0 .3.3.5.6.5h1.2c1.8 0 3.1-.3 4-1.1 1-.8 1.4-2 1.4-3.5s-.4-2.6-1.3-3.4c-1-.7-2.3-1-4.1-1zm21 0h-6a.5.5 0 00-.6.5v3.2c0 .3.3.5.6.5h5.4v2.7h-5.4a.5.5 0 00-.6.5v4.4h-3.3v-14.5h10v2.7z" fill="#D8E5F1" stroke="url(#A)" stroke-width=".5"/><path fill="url(#B)" d="M288 66h12v12h-12z"/><path fill="url(#C)" d="M288 86h12v12h-12z"/><path fill="url(#D)" d="M288 106h12v12h-12z"/><path fill="url(#E)" d="M288 126h12v12h-12z"/><rect x="279.3" y="142.3" width="82.5" height="19.5" rx="1.8" fill="#D5E0EC" fill-opacity=".3"/><path fill="url(#F)" d="M283 146h12v12h-12z"/><rect x="279.3" y="142.3" width="82.5" height="19.5" rx="1.8" stroke="url(#G)" stroke-width=".5"/><path fill="url(#H)" d="M288 166h12v12h-12z"/></g><defs><linearGradient id="b" x1="201.5" y1="234.5" x2="201.5" y2="0" gradientUnits="userSpaceOnUse"><stop stop-color="#F5F8FB"/><stop offset="1" stop-color="#EBF3F7"/></linearGradient><linearGradient id="c" x1="201.5" y1="0" x2="201.5" y2="234.5" gradientUnits="userSpaceOnUse"><stop stop-color="#D2DCE9"/><stop offset="1" stop-color="#F2F7FA"/></linearGradient><linearGradient id="e" x1="194.8" y1="68.8" x2="179.1" y2="238.5" gradientUnits="userSpaceOnUse"><stop stop-color="#364F7F" stop-opacity=".5"/><stop offset=".2" stop-color="#364F7F" stop-opacity=".3"/><stop offset="1" stop-color="#364F7F" stop-opacity=".1"/></linearGradient><linearGradient id="f" x1="321" y1="234.5" x2="321" y2="0" gradientUnits="userSpaceOnUse"><stop stop-color="#FAFDFF"/><stop offset="1" stop-color="#F2F6F9"/></linearGradient><linearGradient id="g" x1="330.2" y1="165.8" x2="330.2" y2="67" gradientUnits="userSpaceOnUse"><stop stop-color="#F5F8FB"/><stop offset="1" stop-color="#EBF3F7"/></linearGradient><linearGradient id="h" x1="330.2" y1="165.8" x2="330.2" y2="67" gradientUnits="userSpaceOnUse"><stop stop-color="#F5F8FB"/><stop offset="1" stop-color="#EBF3F7"/></linearGradient><linearGradient id="i" x1="330.2" y1="165.8" x2="330.2" y2="67" gradientUnits="userSpaceOnUse"><stop stop-color="#F5F8FB"/><stop offset="1" stop-color="#EBF3F7"/></linearGradient><linearGradient id="j" x1="330.2" y1="165.8" x2="330.2" y2="67" gradientUnits="userSpaceOnUse"><stop stop-color="#F5F8FB"/><stop offset="1" stop-color="#EBF3F7"/></linearGradient><linearGradient id="k" x1="330.2" y1="165.8" x2="330.2" y2="67" gradientUnits="userSpaceOnUse"><stop stop-color="#F5F8FB"/><stop offset="1" stop-color="#EBF3F7"/></linearGradient><linearGradient id="l" x1="330.2" y1="165.8" x2="330.2" y2="67" gradientUnits="userSpaceOnUse"><stop stop-color="#F5F8FB"/><stop offset="1" stop-color="#EBF3F7"/></linearGradient><linearGradient id="m" x1="162.5" y1="41" x2="162.5" y2="215" gradientUnits="userSpaceOnUse"><stop stop-color="#fff"/><stop offset="1" stop-color="#F1F6FB"/></linearGradient><linearGradient id="n" x1="162.5" y1="41" x2="162.5" y2="215" gradientUnits="userSpaceOnUse"><stop stop-color="#D0D7DD" stop-opacity=".5"/><stop offset="1" stop-color="#C7D4DF"/></linearGradient><linearGradient id="o" x1="180.2" y1="198.4" x2="131.5" y2="77" gradientUnits="userSpaceOnUse"><stop stop-color="#F3F7FB"/><stop offset="1" stop-color="#C8D4E0"/></linearGradient><linearGradient id="p" x1="180.2" y1="198.4" x2="131.5" y2="77" gradientUnits="userSpaceOnUse"><stop stop-color="#F3F7FB"/><stop offset="1" stop-color="#C8D4E0"/></linearGradient><linearGradient id="q" x1="180.2" y1="198.4" x2="131.5" y2="77" gradientUnits="userSpaceOnUse"><stop stop-color="#F3F7FB"/><stop offset="1" stop-color="#C8D4E0"/></linearGradient><linearGradient id="r" x1="180.2" y1="198.4" x2="131.5" y2="77" gradientUnits="userSpaceOnUse"><stop stop-color="#F3F7FB"/><stop offset="1" stop-color="#C8D4E0"/></linearGradient><linearGradient id="s" x1="408.5" y1="164.1" x2="376" y2="164.1" gradientUnits="userSpaceOnUse"><stop stop-color="#09BDF8"/><stop offset="1" stop-color="#1591D4"/></linearGradient><linearGradient id="t" x1="385.1" y1="141.3" x2="379.6" y2="184.1" gradientUnits="userSpaceOnUse"><stop stop-color="#1C568C"/><stop offset=".3" stop-color="#123555"/><stop offset="1" stop-color="#40A3FF" stop-opacity="0"/></linearGradient><linearGradient id="x" x1="366.2" y1="49.3" x2="350.6" y2="130.9" gradientUnits="userSpaceOnUse"><stop stop-color="#364F7F" stop-opacity=".5"/><stop offset=".2" stop-color="#364F7F" stop-opacity=".3"/><stop offset="1" stop-color="#364F7F" stop-opacity=".1"/></linearGradient><linearGradient id="y" x1="394.2" y1="28" x2="394.2" y2="135" gradientUnits="userSpaceOnUse"><stop stop-color="#fff"/><stop offset="1" stop-color="#F1F4F9"/></linearGradient><linearGradient id="z" x1="394.2" y1="28" x2="394.2" y2="135" gradientUnits="userSpaceOnUse"><stop stop-color="#D1D8DF" stop-opacity=".5"/><stop offset="1" stop-color="#D0D5DA"/></linearGradient><linearGradient id="A" x1="408.5" y1="105.5" x2="408.5" y2="120.5" gradientUnits="userSpaceOnUse"><stop stop-color="#D1E6F2"/><stop offset="1" stop-color="#A6C8DB"/></linearGradient><linearGradient id="B" x1="294" y1="78" x2="294" y2="66" gradientUnits="userSpaceOnUse"><stop stop-color="#02215A"/><stop offset=".1" stop-color="#1E3C74"/><stop offset="1" stop-color="#3761AE"/><stop offset="1" stop-color="#5892FE"/></linearGradient><linearGradient id="C" x1="294" y1="86" x2="294" y2="98" gradientUnits="userSpaceOnUse"><stop stop-color="#1BBF70"/><stop offset="1" stop-color="#166955"/></linearGradient><linearGradient id="D" x1="294" y1="118" x2="294" y2="106" gradientUnits="userSpaceOnUse"><stop stop-color="#CF4513"/><stop offset=".1" stop-color="#FF723F"/><stop offset="1" stop-color="#FFC45B"/><stop offset="1" stop-color="#FFE09F"/></linearGradient><linearGradient id="E" x1="294" y1="138" x2="294" y2="126" gradientUnits="userSpaceOnUse"><stop stop-color="#D72826"/><stop offset="0" stop-color="#FE4E48"/><stop offset="1" stop-color="#FF6F41"/><stop offset="1" stop-color="#FFA98A"/></linearGradient><linearGradient id="F" x1="289.1" y1="146" x2="289.1" y2="158" gradientUnits="userSpaceOnUse"><stop stop-color="#99E6FF"/><stop offset="0" stop-color="#0AB8F4"/><stop offset="1" stop-color="#1494D6"/><stop offset="1" stop-color="#0971AA"/></linearGradient><linearGradient id="G" x1="279" y1="152" x2="362" y2="152" gradientUnits="userSpaceOnUse"><stop stop-color="#C9E5F0"/><stop offset="1" stop-color="#A2C4D2" stop-opacity=".4"/></linearGradient><linearGradient id="H" x1="294" y1="178" x2="294" y2="166" gradientUnits="userSpaceOnUse"><stop stop-color="#8AA1AB"/><stop offset="0" stop-color="#B1CDD8"/><stop offset="1" stop-color="#DCE8F0"/><stop offset="1" stop-color="#E7F3FB"/></linearGradient><filter id="d" x="81" y="44" width="163" height="188" filterUnits="userSpaceOnUse" color-interpolation-filters="sRGB"><feFlood flood-opacity="0" result="BackgroundImageFix"/><feBlend in="SourceGraphic" in2="BackgroundImageFix" result="shape"/><feGaussianBlur stdDeviation="2" result="effect1_foregroundBlur_1025_76755"/></filter><filter id="u" x="-21" y="144" width="62" height="62" filterUnits="userSpaceOnUse" color-interpolation-filters="sRGB"><feFlood flood-opacity="0" result="BackgroundImageFix"/><feColorMatrix in="SourceAlpha" values="0 0 0 0 0 0 0 0 0 0 0 0 0 0 0 0 0 0 127 0" result="hardAlpha"/><feOffset dy="8"/><feGaussianBlur stdDeviation="6"/><feColorMatrix values="0 0 0 0 0.101961 0 0 0 0 0.286275 0 0 0 0 0.443137 0 0 0 0.06 0"/><feBlend in2="BackgroundImageFix" result="effect1_dropShadow_1025_76755"/><feColorMatrix in="SourceAlpha" values="0 0 0 0 0 0 0 0 0 0 0 0 0 0 0 0 0 0 127 0" result="hardAlpha"/><feOffset dy="4"/><feGaussianBlur stdDeviation="8"/><feColorMatrix values="0 0 0 0 0.101961 0 0 0 0 0.286275 0 0 0 0 0.443137 0 0 0 0.04 0"/><feBlend in2="effect1_dropShadow_1025_76755" result="effect2_dropShadow_1025_76755"/><feBlend in="SourceGraphic" in2="effect2_dropShadow_1025_76755" result="shape"/></filter><filter id="v" x="-21" y="182" width="62" height="62" filterUnits="userSpaceOnUse" color-interpolation-filters="sRGB"><feFlood flood-opacity="0" result="BackgroundImageFix"/><feColorMatrix in="SourceAlpha" values="0 0 0 0 0 0 0 0 0 0 0 0 0 0 0 0 0 0 127 0" result="hardAlpha"/><feOffset dy="8"/><feGaussianBlur stdDeviation="6"/><feColorMatrix values="0 0 0 0 0.101961 0 0 0 0 0.286275 0 0 0 0 0.443137 0 0 0 0.06 0"/><feBlend in2="BackgroundImageFix" result="effect1_dropShadow_1025_76755"/><feColorMatrix in="SourceAlpha" values="0 0 0 0 0 0 0 0 0 0 0 0 0 0 0 0 0 0 127 0" result="hardAlpha"/><feOffset dy="4"/><feGaussianBlur stdDeviation="8"/><feColorMatrix values="0 0 0 0 0.101961 0 0 0 0 0.286275 0 0 0 0 0.443137 0 0 0 0.04 0"/><feBlend in2="effect1_dropShadow_1025_76755" result="effect2_dropShadow_1025_76755"/><feBlend in="SourceGraphic" in2="effect2_dropShadow_1025_76755" result="shape"/></filter><filter id="w" x="336" y="35" width="45" height="97" filterUnits="userSpaceOnUse" color-interpolation-filters="sRGB"><feFlood flood-opacity="0" result="BackgroundImageFix"/><feBlend in="SourceGraphic" in2="BackgroundImageFix" result="shape"/><feGaussianBlur stdDeviation="2" result="effect1_foregroundBlur_1025_76755"/></filter><clipPath id="a"><path d="M0 12A12 12 0 0112 0h414a12 12 0 0112 12v214a12 12 0 01-12 12H12a12 12 0 01-12-12V12z" fill="#fff"/></clipPath></defs></svg>