<svg xmlns="http://www.w3.org/2000/svg" width="72" height="72" fill="none"><path fill="url(#a)" stroke="url(#b)" stroke-width=".5" d="M11 15h21l10 10v30a5 5 0 01-5 5H11a5 5 0 01-5-5V19a5 5 0 015-4z"/><g filter="url(#c)"><path fill="url(#d)" fill-rule="evenodd" d="M27 36v-2a3 3 0 00-3-3 3 3 0 00-3 3v2a3 3 0 003 3 3 3 0 003-3zm-3-7c-3 0-5 2-5 5v2a5 5 0 1010 0v-2c0-3-2-5-5-5z" clip-rule="evenodd"/><path fill="url(#e)" stroke="url(#f)" stroke-width=".5" d="M18 36h11l2 1v9a1 1 0 01-2 1H18a1 1 0 01-1-1v-9l1-1z"/><path fill="url(#g)" fill-rule="evenodd" d="M25 41a1 1 0 10-2 0v3h2v-3z" clip-rule="evenodd"/></g><g filter="url(#h)"><path fill="url(#i)" fill-rule="evenodd" d="M32 15v8a2 2 0 002 2h8a1 1 0 011 1 2 2 0 00-1-1l-9-10a2 2 0 00-2-1 1 1 0 011 1z" clip-rule="evenodd"/></g><path fill="#CFD8E0" d="M57 22v-4h3l-4-6-4 6h3v4h2z"/><path fill="#CFD8E0" fill-rule="evenodd" d="M61 9a7 7 0 00-5-2c-3 0-5 2-6 4-3 1-5 3-5 6a5 5 0 004 5l1-2a3 3 0 01-2-3l2-4h1c1-2 3-4 5-4a5 5 0 014 2l1-2zm1 7h1a2 2 0 010 4h-4v2h4c2 0 4-2 4-4a4 4 0 00-3-4l-2 2z" clip-rule="evenodd"/><path fill="#CFD8E0" d="M67 6l1 1-20 20-2-1z"/><defs><linearGradient id="a" x1="23.3" x2="23.3" y1="59.9" y2="14.2" gradientUnits="userSpaceOnUse"><stop stop-color="#09BDF8"/><stop offset="1" stop-color="#1591D4"/></linearGradient><linearGradient id="b" x1="23.3" x2="23.3" y1="14.3" y2="60" gradientUnits="userSpaceOnUse"><stop stop-color="#0085C4"/><stop offset="1" stop-color="#09A8DD"/></linearGradient><linearGradient id="d" x1="24" x2="24" y1="36.1" y2="28.8" gradientUnits="userSpaceOnUse"><stop stop-color="#AECBD7"/><stop offset="1" stop-color="#E0ECF4"/></linearGradient><linearGradient id="e" x1="24" x2="24" y1="47" y2="35.9" gradientUnits="userSpaceOnUse"><stop stop-color="#FFCB5D"/><stop offset="1" stop-color="#FF9B3F"/></linearGradient><linearGradient id="f" x1="24" x2="24" y1="35.9" y2="47" gradientUnits="userSpaceOnUse"><stop stop-color="#FBC401"/><stop offset="1" stop-color="#E86F00"/></linearGradient><linearGradient id="g" x1="24.8" x2="24.8" y1="43.6" y2="38.4" gradientUnits="userSpaceOnUse"><stop stop-color="#0F244A"/><stop offset="1" stop-color="#355EAA"/></linearGradient><linearGradient id="i" x1="30.7" x2="42.5" y1="20.1" y2="20.1" gradientUnits="userSpaceOnUse"><stop stop-color="#2651A1"/><stop offset="1" stop-color="#1E3C74"/></linearGradient><filter id="c" width="21.9" height="26.3" x="13" y="28" color-interpolation-filters="sRGB" filterUnits="userSpaceOnUse"><feFlood flood-opacity="0" result="BackgroundImageFix"/><feColorMatrix in="SourceAlpha" result="hardAlpha" values="0 0 0 0 0 0 0 0 0 0 0 0 0 0 0 0 0 0 127 0"/><feOffset dy="3"/><feGaussianBlur stdDeviation="2"/><feComposite in2="hardAlpha" operator="out"/><feColorMatrix values="0 0 0 0 0 0 0 0 0 0.16 0 0 0 0 0.4 0 0 0 0.2 0"/><feBlend in2="BackgroundImageFix" result="effect1_dropShadow_93_607"/><feBlend in="SourceGraphic" in2="effect1_dropShadow_93_607" result="shape"/></filter><filter id="h" width="16.8" height="16.6" x="27" y="13" color-interpolation-filters="sRGB" filterUnits="userSpaceOnUse"><feFlood flood-opacity="0" result="BackgroundImageFix"/><feColorMatrix in="SourceAlpha" result="hardAlpha" values="0 0 0 0 0 0 0 0 0 0 0 0 0 0 0 0 0 0 127 0"/><feOffset dx="-1" dy="1"/><feGaussianBlur stdDeviation="1.2"/><feComposite in2="hardAlpha" operator="out"/><feColorMatrix values="0 0 0 0 0.0543056 0 0 0 0 0.510217 0 0 0 0 0.766667 0 0 0 1 0"/><feBlend in2="BackgroundImageFix" result="effect1_dropShadow_93_607"/><feBlend in="SourceGraphic" in2="effect1_dropShadow_93_607" result="shape"/></filter></defs></svg>