<svg xmlns="http://www.w3.org/2000/svg" width="292" height="266" fill="none"><g clip-path="url(#a)"><rect width="166" height="208" x="77" y="16" fill="url(#b)" opacity=".5" rx="3"/><g filter="url(#c)" opacity=".1"><path fill="url(#d)" d="M238 22H85a8 8 0 00-8 8v190h161V22z"/></g><path fill="url(#e)" stroke="url(#f)" d="M229 232c0 2-1 3-3 3H67c-2 0-3-1-3-3V34c0-2 1-3 3-3h159c2 0 3 1 3 3v198z"/><path fill="#F2F6FA" d="M84 55h56v8H84z"/><path fill="url(#g)" fill-rule="evenodd" d="M211 164a1 1 0 00-1-1H85a1 1 0 00-1 1v3a1 1 0 001 1h125a1 1 0 001-1v-3zm0-13a1 1 0 00-1-1H85a1 1 0 00-1 1v3l1 1h125a1 1 0 001-1v-3zm0-14a1 1 0 00-1 0H85a1 1 0 00-1 0v4a1 1 0 001 1h125a1 1 0 001-1v-4zm0-13a1 1 0 00-1-1H85a1 1 0 00-1 1v4l1 1h125a1 1 0 001-1v-4zm0-13a1 1 0 00-1-1H85a1 1 0 00-1 1v4a1 1 0 001 1h125a1 1 0 001-1v-4zm0-13a1 1 0 00-1-1H85a1 1 0 00-1 1v4a1 1 0 001 1h125a1 1 0 001-1v-4zm0-13a1 1 0 00-1-1H85a1 1 0 00-1 1v4a1 1 0 001 1h125a1 1 0 001-1v-4zm0-13a1 1 0 00-1-1H85a1 1 0 00-1 1v4a1 1 0 001 1h125a1 1 0 001-1v-4z" clip-rule="evenodd"/><path fill="url(#h)" d="M85 176h125l1 1v4a1 1 0 01-1 1H85a1 1 0 01-1-1v-4a1 1 0 011-1z"/><path fill="url(#i)" d="M85 191h37l1 1v4a1 1 0 01-1 1H85a1 1 0 01-1-1v-4a1 1 0 011-1z"/><path fill="url(#j)" d="M85 206h37l1 1v3a1 1 0 01-1 1H85a1 1 0 01-1-1v-3a1 1 0 011-1z"/><path fill="#D8E5F1" d="M144 211h2c8 0 13-4 13-10 0-7-4-10-13-10h-9a1 1 0 00-1 1v26a1 1 0 001 1h6a1 1 0 000-1v-7a1 1 0 011 0zm0-14h2c4 0 6 1 6 4s-2 4-6 4h-2a1 1 0 01-1 0v-8a1 1 0 011 0zm18 22h10c11 0 16-5 16-14 0-10-6-14-16-14h-10v27a1 1 0 000 1zm7-22h2c7 0 10 2 10 8 0 5-3 8-10 8h-2a1 1 0 010-1v-15zm42-1a1 1 0 010 1h-12v6a1 1 0 000 1h10a1 1 0 011 0v5a1 1 0 01-1 1h-10v8a1 1 0 01-1 1h-6a1 1 0 010-1v-26a1 1 0 010-1h19a1 1 0 010 1v4z"/><path stroke="url(#k)" d="M144 211h2c8 0 13-4 13-10 0-7-4-10-13-10h-9a1 1 0 00-1 1v26a1 1 0 001 1h6a1 1 0 000-1v-7a1 1 0 011 0zm0-14h2c4 0 6 1 6 4s-2 4-6 4h-2a1 1 0 01-1 0v-8a1 1 0 011 0zm18 22h10c11 0 16-5 16-14 0-10-6-14-16-14h-10v27a1 1 0 000 1zm7-22h2c7 0 10 2 10 8 0 5-3 8-10 8h-2a1 1 0 010-1v-15zm42-1a1 1 0 010 1h-12v6a1 1 0 000 1h10a1 1 0 011 0v5a1 1 0 01-1 1h-10v8a1 1 0 01-1 1h-6a1 1 0 010-1v-26a1 1 0 010-1h19a1 1 0 010 1v4z"/><path fill="url(#l)" d="M34 131h-8v63h8v-63z"/><path fill="url(#m)" d="M33 138l3-2-6-7-6 7 2 2-2 3 2 3-2 3 2 2-2 3 2 3-2 3 2 2-2 3 2 3-2 2 2 3-2 3 2 3-2 2 2 3-2 3 6 6 6-6-3-3 3-3-3-2 3-3-3-3 3-3-3-2 3-3-3-3 3-2-3-3 3-3-3-3 3-2-3-3 3-3-3-3z"/><path fill="url(#n)" d="M51 132H20v-1c0-2 2-3 3-3h25l3 4z"/><path fill="url(#o)" d="M39 124H20v4h19v-4z"/><path fill="url(#p)" d="M32 121h-4l-2 2v1h8v-1l-2-2z"/><path fill="url(#q)" d="M39 127H20v1h19v-1z"/><path fill="url(#r)" d="M36 199H23v3h13v-3z"/><path fill="url(#s)" d="M42 204H18v3h24v-3z"/><path fill="url(#t)" d="M32 198h-5v1h5v-1z"/><path fill="url(#u)" d="M48 198H23c-2 0-3-1-3-3v-1h31l-3 4z"/><path fill="url(#v)" d="M32 209h-4l-2-2v-5h8v5l-2 2z"/><path fill="url(#w)" d="M18 208c1 0 2-1 2-3s-1-3-2-3-3 1-3 3 1 3 3 3z"/><path fill="url(#x)" d="M34 202h-8v2h8v-2z"/><path fill="url(#y)" d="M40 208h2l1-1v-4l-1-1h-2v6z"/><path fill="url(#z)" d="M26 138l-2-2h12l-10 2zm10 3H24l2 3 10-3zm0 6H24l2 2 10-2zm0 38H24l2 2 10-2zm0-6H24l2 3 10-3zm0-5H24l2 3 10-3zm0-6H24l2 3 10-3zm0-5H24l2 3 10-3zm0-5H24l2 2 10-2zm0-6H24l2 3 10-3z"/><path fill="#fff" fill-rule="evenodd" d="M30 57l14-20h1l10 13 5-7h1l12 14H30zm41-25c0-3-3-5-6-5s-5 2-5 5 2 5 5 5 6-2 6-5z" clip-rule="evenodd"/><g filter="url(#A)" opacity=".5"><path fill="url(#B)" d="M100 32H71a8 8 0 00-8 8v81h37V32z"/></g><rect width="87.3" height="105.9" x="1" y="1" fill="url(#C)" stroke="url(#D)" stroke-width="1.1" rx="1.6"/><circle cx="44" cy="54" r="14" fill="url(#E)"/><g filter="url(#F)"><path fill="url(#G)" fill-rule="evenodd" d="M45 47h-3v5h-5v3h5v6h3v-6h6v-3h-6v-5z" clip-rule="evenodd"/></g><g fill="#A9B8C2" filter="url(#H)"><path d="M87 247h-6a2 2 0 00-2 2v13c0 1 0 2 2 2h3v-2h-3v-13h6v3h4v3l2-2v-1l-1-1-3-4a2 2 0 00-2 0zm10 9l-1-1a1 1 0 00-1-1 1 1 0 00-1 1l-8 7v3h4l7-7v-2zm-8 8h-1v-1l5-5 1 1-5 5zm6-6l-1-1 1-1 1 1-1 1z"/></g><g filter="url(#I)"><path fill="#A9B8C2" fill-rule="evenodd" d="M133 247v6l-2 2h-10a2 2 0 01-2-2v-6h2v6h10v-6h2zm0 16v2h-2v-1h-4l-1-1v-4h-5v6h-2v-6l2-2h7l5 5v1z" clip-rule="evenodd"/></g><g filter="url(#J)"><path fill="#A9B8C2" fill-rule="evenodd" d="M168 251v-1a2 2 0 00-2-2h-4a2 2 0 00-2 2v1h-3v2h1v9a2 2 0 002 2h8a2 2 0 002-2v-9h1v-2h-3zm-6-1h4v1h-4v-1zm-2 12v-9h8v9h-8zm5-8h1v7h-1v-7zm-3 0h1v7h-1v-7z" clip-rule="evenodd"/></g><g fill="#A9B8C2" fill-rule="evenodd" clip-rule="evenodd" filter="url(#K)"><path d="M209 260v-8a2 2 0 00-2-2h-8v-2h-2v2h-3v2h13v12h2v-2h2v-2h-2z"/><path d="M199 254h-2v6l2 2h6v-2h-6v-6z"/></g><path fill="#1591D4" d="M179 5a1 1 0 00-2 0h2zm-1 101h-1a1 1 0 001 1v-1zM177 6a1 1 0 002 0h-2zm2 4a1 1 0 00-2 0h2zm-2 3a1 1 0 002 0h-2zm2 4a1 1 0 00-2 0h2zm-2 2a1 1 0 002 0h-2zm2 4a1 1 0 00-2 0h2zm-2 3a1 1 0 002 0h-2zm2 4a1 1 0 00-2 0h2zm-2 3a1 1 0 002 0h-2zm2 4a1 1 0 00-2 0h2zm-2 3a1 1 0 002 0h-2zm2 4a1 1 0 00-2 0h2zm-2 3a1 1 0 002 0h-2zm2 3a1 1 0 00-2 0h2zm-2 3a1 1 0 002 0h-2zm2 4a1 1 0 00-2 0h2zm-2 3a1 1 0 002 0h-2zm2 4a1 1 0 00-2 0h2zm-2 3a1 1 0 002 0h-2zm2 4a1 1 0 00-2 0h2zm-2 3a1 1 0 002 0h-2zm2 3a1 1 0 00-2 0h2zm-2 3a1 1 0 002 0h-2zm2 4a1 1 0 00-2 0h2zm-2 3a1 1 0 002 0h-2zm2 4a1 1 0 00-2 0h2zm-2 3a1 1 0 002 0h-2zm2 4a1 1 0 00-2 0h2zm-2 3a1 1 0 102 0h-2zm2 4a1 1 0 00-2 0h2zm0 2a1 1 0 100-2v2zm4-2a1 1 0 100 2v-2zm3 2a1 1 0 000-2v2zm4-2a1 1 0 000 2v-2zm3 2a1 1 0 000-2v2zm4-2a1 1 0 000 2v-2zm4 2a1 1 0 100-2v2zm4-2a1 1 0 100 2v-2zm3 2a1 1 0 100-2v2zm4-2a1 1 0 100 2v-2zm3 2a1 1 0 000-2v2zm4-2a1 1 0 000 2v-2zm3 2a1 1 0 000-2v2zm4-2a1 1 0 000 2v-2zm3 2a1 1 0 100-2v2zm4-2a1 1 0 100 2v-2zm3 2a1 1 0 100-2v2zm4-2a1 1 0 100 2v-2zm3 2a1 1 0 000-2v2zm5-2a1 1 0 000 2v-2zm3 2a1 1 0 000-2v2zm4-2a1 1 0 000 2v-2zm3 2a1 1 0 100-2v2zm4-2a1 1 0 100 2v-2zm3 2a1 1 0 100-2v2zm4-2a1 1 0 100 2v-2zm3 2a1 1 0 000-2v2zm4-2a1 1 0 000 2v-2zm3 2a1 1 0 000-2v2zm4-2a1 1 0 000 2v-2zm3 2a1 1 0 100-2v2zm4-2a1 1 0 100 2v-2zM177 5v1h2V5h-2zm0 5v3h2v-3h-2zm0 7v2h2v-2h-2zm0 6v3h2v-3h-2zm0 7v3h2v-3h-2zm0 7v3h2v-3h-2zm0 7v3h2v-3h-2zm0 6v3h2v-3h-2zm0 7v3h2v-3h-2zm0 7v3h2v-3h-2zm0 7v3h2v-3h-2zm0 6v3h2v-3h-2zm0 7v3h2v-3h-2zm0 7v3h2v-3h-2zm0 7v3h2v-3h-2zm0 7v1h2v-1h-2zm1 2h1v-2h-1v2zm5 0h3v-2h-3v2zm7 0h3v-2h-3v2zm7 0h4v-2h-4v2zm8 0h3v-2h-3v2zm7 0h3v-2h-3v2zm7 0h3v-2h-3v2zm7 0h3v-2h-3v2zm7 0h3v-2h-3v2zm7 0h3v-2h-3v2zm8 0h3v-2h-3v2zm7 0h3v-2h-3v2zm7 0h3v-2h-3v2zm7 0h3v-2h-3v2zm7 0h3v-2h-3v2zm7 0h3v-2h-3v2zm7 0h2v-2h-2v2z"/><path fill="url(#L)" d="M112 102l-7 4c-7-12-23-17-36-11a28 28 0 0126 17l-8 5 22 8 3-23z"/><path fill="url(#M)" fill-opacity=".4" d="M112 102l-7 4c-7-12-23-17-36-11a28 28 0 0126 17l-8 5 22 8 3-23z"/><path fill="#AECDE2" fill-opacity=".2" d="M183 36h41v66h-41z"/><path fill="url(#N)" stroke="url(#O)" stroke-width=".5" d="M261 105v-1l21-5c4-1 7-5 6-10l-1-4c-1-4-4-7-8-7l-2 1-9 2c-7 1-11 8-9 15l-4 3-1 2h-1a32 32 0 00-7-3l-22-6a36 36 0 00-9 0h-7l-10 3 42 10v1l-11 2v9l17-4a32 32 0 007-3h1l1 1 4 3c-2 7 3 14 9 16l9 2h2c4 0 7-2 8-6l1-4c1-5-2-9-6-11l-21-5h-1v-1h1zm9 19l-4-3c-1-2-2-3-1-5v-3h1l14 4 2 1v2l-1 4a2 2 0 01-2 2h-1l-8-2zm12-33v1l-2 1-14 4h-1v-2l1-5c1-2 2-3 4-3l8-3h1l2 2 1 5z"/><circle cx="252" cy="105" r="3" fill="#4F7BA3"/></g><defs><linearGradient id="b" x1="160.4" x2="160.4" y1="224" y2="16" gradientUnits="userSpaceOnUse"><stop stop-color="#DBE2E8"/><stop offset="1" stop-color="#EDF4F9"/></linearGradient><linearGradient id="d" x1="191" x2="172.8" y1="44.8" y2="231.4" gradientUnits="userSpaceOnUse"><stop stop-color="#364F7F" stop-opacity=".5"/><stop offset=".2" stop-color="#364F7F" stop-opacity=".3"/><stop offset="1" stop-color="#364F7F" stop-opacity=".3"/></linearGradient><linearGradient id="e" x1="146.5" x2="146.5" y1="30" y2="236" gradientUnits="userSpaceOnUse"><stop stop-color="#fff"/><stop offset="1" stop-color="#F1F6FB"/></linearGradient><linearGradient id="f" x1="146.5" x2="146.5" y1="30" y2="236" gradientUnits="userSpaceOnUse"><stop stop-color="#D0D7DD" stop-opacity=".5"/><stop offset="1" stop-color="#C7D4DF"/></linearGradient><linearGradient id="g" x1="167.5" x2="109.8" y1="216.3" y2="72.7" gradientUnits="userSpaceOnUse"><stop stop-color="#DEE6EE"/><stop offset="1" stop-color="#F3F7FB"/></linearGradient><linearGradient id="h" x1="167.5" x2="109.8" y1="216.3" y2="72.7" gradientUnits="userSpaceOnUse"><stop stop-color="#DEE6EE"/><stop offset="1" stop-color="#F3F7FB"/></linearGradient><linearGradient id="i" x1="167.5" x2="109.8" y1="216.3" y2="72.7" gradientUnits="userSpaceOnUse"><stop stop-color="#DEE6EE"/><stop offset="1" stop-color="#F3F7FB"/></linearGradient><linearGradient id="j" x1="167.5" x2="109.8" y1="216.3" y2="72.7" gradientUnits="userSpaceOnUse"><stop stop-color="#DEE6EE"/><stop offset="1" stop-color="#F3F7FB"/></linearGradient><linearGradient id="k" x1="173.6" x2="173.6" y1="191" y2="218.8" gradientUnits="userSpaceOnUse"><stop stop-color="#D1E6F2"/><stop offset="1" stop-color="#A6C8DB"/></linearGradient><linearGradient id="l" x1="25.7" x2="33.7" y1="162.3" y2="162.3" gradientUnits="userSpaceOnUse"><stop stop-color="#FF9B23"/><stop offset=".3" stop-color="#FF9A20"/><stop offset=".4" stop-color="#FFAC31"/><stop offset=".5" stop-color="#FFCD50"/><stop offset=".6" stop-color="#FFC54C"/><stop offset=".8" stop-color="#FFB645"/><stop offset="1" stop-color="#FFB042"/></linearGradient><linearGradient id="m" x1="23.7" x2="35.6" y1="160.2" y2="160.2" gradientUnits="userSpaceOnUse"><stop stop-color="#FF9B23"/><stop offset=".3" stop-color="#FA0"/><stop offset=".4" stop-color="#FFB232"/><stop offset=".5" stop-color="#FFB753"/><stop offset=".8" stop-color="#FFB248"/><stop offset="1" stop-color="#FFB042"/></linearGradient><linearGradient id="n" x1="20.4" x2="51" y1="130.1" y2="130.1" gradientUnits="userSpaceOnUse"><stop stop-color="#FF9B23"/><stop offset=".3" stop-color="#FFBD38"/><stop offset=".5" stop-color="#FFBD38"/><stop offset=".7" stop-color="#FFBF3E"/><stop offset="1" stop-color="#FFC144"/></linearGradient><linearGradient id="o" x1="20.4" x2="39" y1="125.8" y2="125.8" gradientUnits="userSpaceOnUse"><stop stop-color="#FF9B23"/><stop offset=".3" stop-color="#FFBD38"/><stop offset=".5" stop-color="#FFBD38"/><stop offset=".7" stop-color="#FFBF3E"/><stop offset="1" stop-color="#FFC144"/></linearGradient><linearGradient id="p" x1="25.7" x2="33.6" y1="122.4" y2="122.4" gradientUnits="userSpaceOnUse"><stop stop-color="#FF9B23"/><stop offset=".3" stop-color="#FFBD38"/><stop offset=".5" stop-color="#FFBD38"/><stop offset=".7" stop-color="#FFBF3E"/><stop offset="1" stop-color="#FFC144"/></linearGradient><linearGradient id="q" x1="20.3" x2="39" y1="127.3" y2="127.3" gradientUnits="userSpaceOnUse"><stop stop-color="#FFB650"/><stop offset=".1" stop-color="#FFB130"/><stop offset=".2" stop-color="#FFAD15"/><stop offset=".3" stop-color="#FFAB06"/><stop offset=".4" stop-color="#FA0"/><stop offset="1" stop-color="#FFC124"/></linearGradient><linearGradient id="r" x1="23.1" x2="36.3" y1="200.9" y2="200.9" gradientUnits="userSpaceOnUse"><stop stop-color="#FF9B23"/><stop offset=".3" stop-color="#FFBD38"/><stop offset=".5" stop-color="#FFBD38"/><stop offset=".7" stop-color="#FFBF3E"/><stop offset="1" stop-color="#FFC144"/></linearGradient><linearGradient id="s" x1="29.6" x2="29.6" y1="206.5" y2="203.7" gradientUnits="userSpaceOnUse"><stop stop-color="#FF9B23"/><stop offset=".3" stop-color="#FF9A20"/><stop offset=".4" stop-color="#FFB22E"/><stop offset=".5" stop-color="#FFC137"/><stop offset=".5" stop-color="#FFC73A"/><stop offset=".6" stop-color="#FFC73B"/><stop offset=".8" stop-color="#FFBA4A"/><stop offset="1" stop-color="#FFB650"/></linearGradient><linearGradient id="t" x1="27" x2="32.3" y1="198.8" y2="198.8" gradientUnits="userSpaceOnUse"><stop stop-color="#FFB650"/><stop offset=".1" stop-color="#FFB130"/><stop offset=".2" stop-color="#FFAD15"/><stop offset=".3" stop-color="#FFAB06"/><stop offset=".4" stop-color="#FA0"/><stop offset="1" stop-color="#FFC124"/></linearGradient><linearGradient id="u" x1="20.4" x2="51" y1="196" y2="196" gradientUnits="userSpaceOnUse"><stop stop-color="#FF9B23"/><stop offset=".3" stop-color="#FFBD38"/><stop offset=".5" stop-color="#FFBD38"/><stop offset=".7" stop-color="#FFBF3E"/><stop offset="1" stop-color="#FFC144"/></linearGradient><linearGradient id="v" x1="25.7" x2="33.7" y1="205.8" y2="205.8" gradientUnits="userSpaceOnUse"><stop stop-color="#FF9B23"/><stop offset=".3" stop-color="#FFBD38"/><stop offset=".5" stop-color="#FFBD38"/><stop offset=".7" stop-color="#FFBF3E"/><stop offset="1" stop-color="#FFC144"/></linearGradient><linearGradient id="x" x1="25.7" x2="33.6" y1="203" y2="203" gradientUnits="userSpaceOnUse"><stop stop-color="#FFB650"/><stop offset=".1" stop-color="#FFB130"/><stop offset=".2" stop-color="#FFAD15"/><stop offset=".3" stop-color="#FFAB06"/><stop offset=".4" stop-color="#FA0"/><stop offset="1" stop-color="#FFC124"/></linearGradient><linearGradient id="y" x1="42.7" x2="40.1" y1="204.8" y2="204.8" gradientUnits="userSpaceOnUse"><stop stop-color="#FF9B23"/><stop offset=".3" stop-color="#FFBD38"/><stop offset=".5" stop-color="#FFBD38"/><stop offset=".7" stop-color="#FFBF3E"/><stop offset="1" stop-color="#FFC144"/></linearGradient><linearGradient id="z" x1="23.7" x2="35.6" y1="161.5" y2="161.5" gradientUnits="userSpaceOnUse"><stop stop-color="#FFAB03"/><stop offset=".8" stop-color="#FF991E"/><stop offset=".8" stop-color="#FF9A1F"/><stop offset="1" stop-color="#FF9C25"/></linearGradient><linearGradient id="B" x1="89.2" x2="73.6" y1="42.3" y2="123.9" gradientUnits="userSpaceOnUse"><stop stop-color="#364F7F" stop-opacity=".5"/><stop offset=".2" stop-color="#364F7F" stop-opacity=".3"/><stop offset="1" stop-color="#364F7F" stop-opacity=".1"/></linearGradient><linearGradient id="C" x1="44.2" x2="44.2" y1="0" y2="107" gradientUnits="userSpaceOnUse"><stop stop-color="#fff"/><stop offset="1" stop-color="#F1F4F9"/></linearGradient><linearGradient id="D" x1="44.2" x2="44.2" y1="0" y2="107" gradientUnits="userSpaceOnUse"><stop stop-color="#D1D8DF" stop-opacity=".5"/><stop offset="1" stop-color="#D0D5DA"/></linearGradient><linearGradient id="E" x1="44.1" x2="44.1" y1="40.1" y2="68" gradientUnits="userSpaceOnUse"><stop stop-color="#99E6FF"/><stop offset="0" stop-color="#0AB8F4"/><stop offset="1" stop-color="#1494D6"/><stop offset="1" stop-color="#0971AA"/></linearGradient><linearGradient id="G" x1="44.4" x2="44.4" y1="51.3" y2="72.1" gradientUnits="userSpaceOnUse"><stop stop-color="#fff"/><stop offset="1" stop-color="#fff" stop-opacity="0"/></linearGradient><linearGradient id="L" x1="79.3" x2="109.9" y1="86.9" y2="123.6" gradientUnits="userSpaceOnUse"><stop stop-color="#96A5B4"/><stop offset=".7" stop-color="#728395"/><stop offset="1" stop-color="#6C7C8C"/></linearGradient><linearGradient id="N" x1="284.5" x2="200" y1="102.5" y2="102.5" gradientUnits="userSpaceOnUse"><stop stop-color="#5197B6"/><stop offset="1" stop-color="#9CC3DF"/></linearGradient><linearGradient id="O" x1="288" x2="222.5" y1="130" y2="87.5" gradientUnits="userSpaceOnUse"><stop stop-color="#5E879C"/><stop offset="1" stop-color="#D8E5F1"/></linearGradient><filter id="c" width="169" height="206" x="73" y="18" color-interpolation-filters="sRGB" filterUnits="userSpaceOnUse"><feFlood flood-opacity="0" result="BackgroundImageFix"/><feBlend in="SourceGraphic" in2="BackgroundImageFix" result="shape"/><feGaussianBlur result="effect1_foregroundBlur_1025_76756" stdDeviation="2"/></filter><filter id="A" width="45" height="97" x="59" y="28" color-interpolation-filters="sRGB" filterUnits="userSpaceOnUse"><feFlood flood-opacity="0" result="BackgroundImageFix"/><feBlend in="SourceGraphic" in2="BackgroundImageFix" result="shape"/><feGaussianBlur result="effect1_foregroundBlur_1025_76756" stdDeviation="2"/></filter><filter id="F" width="21.1" height="21.1" x="34" y="44" color-interpolation-filters="sRGB" filterUnits="userSpaceOnUse"><feFlood flood-opacity="0" result="BackgroundImageFix"/><feColorMatrix in="SourceAlpha" result="hardAlpha" values="0 0 0 0 0 0 0 0 0 0 0 0 0 0 0 0 0 0 127 0"/><feOffset dy="1"/><feGaussianBlur stdDeviation="1.7"/><feColorMatrix values="0 0 0 0 0 0 0 0 0 0.478833 0 0 0 0 0.920833 0 0 0 0.25 0"/><feBlend in2="BackgroundImageFix" result="effect1_dropShadow_1025_76756"/><feBlend in="SourceGraphic" in2="effect1_dropShadow_1025_76756" result="shape"/></filter><filter id="H" width="62" height="62" x="57" y="229" color-interpolation-filters="sRGB" filterUnits="userSpaceOnUse"><feFlood flood-opacity="0" result="BackgroundImageFix"/><feColorMatrix in="SourceAlpha" result="hardAlpha" values="0 0 0 0 0 0 0 0 0 0 0 0 0 0 0 0 0 0 127 0"/><feOffset dy="8"/><feGaussianBlur stdDeviation="6"/><feColorMatrix values="0 0 0 0 0.101961 0 0 0 0 0.286275 0 0 0 0 0.443137 0 0 0 0.06 0"/><feBlend in2="BackgroundImageFix" result="effect1_dropShadow_1025_76756"/><feColorMatrix in="SourceAlpha" result="hardAlpha" values="0 0 0 0 0 0 0 0 0 0 0 0 0 0 0 0 0 0 127 0"/><feOffset dy="4"/><feGaussianBlur stdDeviation="8"/><feColorMatrix values="0 0 0 0 0.101961 0 0 0 0 0.286275 0 0 0 0 0.443137 0 0 0 0.04 0"/><feBlend in2="effect1_dropShadow_1025_76756" result="effect2_dropShadow_1025_76756"/><feBlend in="SourceGraphic" in2="effect2_dropShadow_1025_76756" result="shape"/></filter><filter id="I" width="62" height="62" x="95" y="229" color-interpolation-filters="sRGB" filterUnits="userSpaceOnUse"><feFlood flood-opacity="0" result="BackgroundImageFix"/><feColorMatrix in="SourceAlpha" result="hardAlpha" values="0 0 0 0 0 0 0 0 0 0 0 0 0 0 0 0 0 0 127 0"/><feOffset dy="8"/><feGaussianBlur stdDeviation="6"/><feColorMatrix values="0 0 0 0 0.101961 0 0 0 0 0.286275 0 0 0 0 0.443137 0 0 0 0.06 0"/><feBlend in2="BackgroundImageFix" result="effect1_dropShadow_1025_76756"/><feColorMatrix in="SourceAlpha" result="hardAlpha" values="0 0 0 0 0 0 0 0 0 0 0 0 0 0 0 0 0 0 127 0"/><feOffset dy="4"/><feGaussianBlur stdDeviation="8"/><feColorMatrix values="0 0 0 0 0.101961 0 0 0 0 0.286275 0 0 0 0 0.443137 0 0 0 0.04 0"/><feBlend in2="effect1_dropShadow_1025_76756" result="effect2_dropShadow_1025_76756"/><feBlend in="SourceGraphic" in2="effect2_dropShadow_1025_76756" result="shape"/></filter><filter id="J" width="62" height="62" x="133" y="229" color-interpolation-filters="sRGB" filterUnits="userSpaceOnUse"><feFlood flood-opacity="0" result="BackgroundImageFix"/><feColorMatrix in="SourceAlpha" result="hardAlpha" values="0 0 0 0 0 0 0 0 0 0 0 0 0 0 0 0 0 0 127 0"/><feOffset dy="8"/><feGaussianBlur stdDeviation="6"/><feColorMatrix values="0 0 0 0 0.101961 0 0 0 0 0.286275 0 0 0 0 0.443137 0 0 0 0.06 0"/><feBlend in2="BackgroundImageFix" result="effect1_dropShadow_1025_76756"/><feColorMatrix in="SourceAlpha" result="hardAlpha" values="0 0 0 0 0 0 0 0 0 0 0 0 0 0 0 0 0 0 127 0"/><feOffset dy="4"/><feGaussianBlur stdDeviation="8"/><feColorMatrix values="0 0 0 0 0.101961 0 0 0 0 0.286275 0 0 0 0 0.443137 0 0 0 0.04 0"/><feBlend in2="effect1_dropShadow_1025_76756" result="effect2_dropShadow_1025_76756"/><feBlend in="SourceGraphic" in2="effect2_dropShadow_1025_76756" result="shape"/></filter><filter id="K" width="62" height="62" x="171" y="229" color-interpolation-filters="sRGB" filterUnits="userSpaceOnUse"><feFlood flood-opacity="0" result="BackgroundImageFix"/><feColorMatrix in="SourceAlpha" result="hardAlpha" values="0 0 0 0 0 0 0 0 0 0 0 0 0 0 0 0 0 0 127 0"/><feOffset dy="8"/><feGaussianBlur stdDeviation="6"/><feColorMatrix values="0 0 0 0 0.101961 0 0 0 0 0.286275 0 0 0 0 0.443137 0 0 0 0.06 0"/><feBlend in2="BackgroundImageFix" result="effect1_dropShadow_1025_76756"/><feColorMatrix in="SourceAlpha" result="hardAlpha" values="0 0 0 0 0 0 0 0 0 0 0 0 0 0 0 0 0 0 127 0"/><feOffset dy="4"/><feGaussianBlur stdDeviation="8"/><feColorMatrix values="0 0 0 0 0.101961 0 0 0 0 0.286275 0 0 0 0 0.443137 0 0 0 0.04 0"/><feBlend in2="effect1_dropShadow_1025_76756" result="effect2_dropShadow_1025_76756"/><feBlend in="SourceGraphic" in2="effect2_dropShadow_1025_76756" result="shape"/></filter><radialGradient id="w" cx="0" cy="0" r="1" gradientTransform="matrix(2.6624 0 0 2.80404 18 205)" gradientUnits="userSpaceOnUse"><stop stop-color="#FF9B23"/><stop offset=".3" stop-color="#FFBD38"/><stop offset=".5" stop-color="#FFBD38"/><stop offset=".7" stop-color="#FFBF3E"/><stop offset="1" stop-color="#FFC144"/></radialGradient><radialGradient id="M" cx="0" cy="0" r="1" gradientTransform="matrix(11.76294 -10.00659 17.63895 20.73493 91 116)" gradientUnits="userSpaceOnUse"><stop stop-color="#3E4C5B"/><stop offset="1" stop-color="#B5C3D3"/></radialGradient><clipPath id="a"><path fill="#fff" d="M0 0h292v266H0z"/></clipPath></defs></svg>