<svg width="349" height="266" fill="none" xmlns="http://www.w3.org/2000/svg"><g clip-path="url(#a)"><rect width="188" height="235" rx="3" transform="matrix(1 0 0 -1 34 237)" fill="url(#b)"/><g opacity=".1" filter="url(#c)"><path d="M222 12H52a8 8 0 00-8 8v217h178V12z" fill="url(#d)"/></g><path d="M252.3 259.2a4 4 0 01-4 4H61.8a4 4 0 01-4-4V26.8a4 4 0 014-4h186.5a4 4 0 014 4v232.4z" fill="url(#e)" stroke="url(#f)" stroke-width="1.2"/><path fill="#D1D9E0" d="M87 49h65.9v9H87z"/><path stroke="#00A5E4" stroke-width="1.3" d="M72.6 69.9h164.2v41.4H72.6z"/><circle cx="72.5" cy="69.8" r="1.9" fill="#F5F8FA" stroke="#00A5E4" stroke-width="1.3"/><circle cx="154.6" cy="69.8" r="1.9" fill="#F5F8FA" stroke="#00A5E4" stroke-width="1.3"/><circle cx="236.8" cy="69.8" r="1.9" fill="#F5F8FA" stroke="#00A5E4" stroke-width="1.3"/><circle cx="72.5" cy="111.2" r="1.9" fill="#F5F8FA" stroke="#00A5E4" stroke-width="1.3"/><circle cx="154.6" cy="111.2" r="1.9" fill="#F5F8FA" stroke="#00A5E4" stroke-width="1.3"/><circle cx="236.8" cy="111.2" r="1.9" fill="#F5F8FA" stroke="#00A5E4" stroke-width="1.3"/><circle cx="72.5" cy="90.2" r="1.9" fill="#F5F8FA" stroke="#00A5E4" stroke-width="1.3"/><circle cx="236.8" cy="90.2" r="1.9" fill="#F5F8FA" stroke="#00A5E4" stroke-width="1.3"/><path d="M83 99.3h91.5V80.6H83.1v18.7z" fill="url(#g)"/><rect x="83.5" y="123.1" width="8.7" height="8.7" rx="1.3" fill="#0A93E4"/><rect x="83.5" y="123.1" width="8.7" height="8.7" rx="1.3" stroke="#0A93E4"/><path fill-rule="evenodd" clip-rule="evenodd" d="M87.2 129.8l-2.2-2.2.8-.9 1.4 1.4 2.5-3.1 1 .7-3.5 4.1z" fill="#F1F3F5"/><rect x="83.7" y="142.1" width="8.1" height="8.1" rx="1" fill="#F1F3F5" stroke="#E7EBEE" stroke-width=".5"/><rect x="83.7" y="164.5" width="8.1" height="8.1" rx="4.1" fill="#F1F3F5" stroke="#E7EBEE" stroke-width=".5"/><rect x="83.7" y="183" width="8.1" height="8.1" rx="4.1" fill="#F1F3F5" stroke="#E7EBEE" stroke-width=".5"/><rect x="85.2" y="184.4" width="5.2" height="5.2" rx="2.6" fill="#0A93E4"/><rect x="85.2" y="184.4" width="5.2" height="5.2" rx="2.6" stroke="#0A93E4"/><path fill-rule="evenodd" clip-rule="evenodd" d="M136.6 130.6h-38v-6.7h38v6.7zm16.5 18H98.2v-6.8h55v6.7zM98.2 190h52.2v-6.7H98.2v6.7zm45.5-18.7H98.2v-6.7h45.5v6.7z" fill="url(#h)"/><g opacity=".5" filter="url(#i)"><path d="M159 47a12 12 0 0112-12h82v138h-94V47z" fill="url(#j)"/></g><rect x="195.3" y="41.6" width="150.8" height="48.8" rx="4.1" fill="url(#k)"/><path d="M214.9 72l3-9.7h-2.2l-2 7-2.4-7h-1.8l-2.3 7-2-7H203l3 9.7h2.2l2.2-7 2.3 7h2.2zm15 0l3-9.7h-2.2l-2 7-2.3-7h-1.9l-2.3 7-2-7H218l3 9.7h2.2l2.3-7 2.2 7h2.2zm15 0l3-9.7h-2.1l-2 7-2.4-7h-1.8l-2.3 7-2-7H233l3 9.7h2.2l2.2-7 2.2 7h2.3zm4.8.2c.7 0 1.4-.6 1.4-1.4 0-.7-.7-1.4-1.4-1.4-.8 0-1.4.7-1.4 1.4 0 .8.6 1.4 1.4 1.4zm12.2-.2l-3.5-5 3.3-4.7h-2.4l-2.3 3.3-2.2-3.3h-2.4l3.3 4.7-3.5 5h2.3l2.6-3.6 2.4 3.6h2.4zm5.1.2c3.1 0 5-2.3 5-5 0-2.8-1.9-5.1-5-5.1-3 0-5 2.3-5 5 0 2.8 2 5.1 5 5.1zm0-1.8c-1.8 0-2.8-1.5-2.8-3.2 0-1.7 1-3.2 2.8-3.2 1.8 0 2.8 1.5 2.8 3.2 0 1.7-1 3.2-2.8 3.2zm16 1.6V58.7h-2.1v5c-.8-1-2-1.6-3.1-1.6-2.5 0-4.3 2-4.3 5 0 3.3 1.8 5.1 4.3 5.1a4 4 0 003-1.5V72h2.2zm-4.6-1.6c-1.7 0-2.7-1.4-2.7-3.2 0-1.9 1-3.2 2.7-3.2 1 0 2 .5 2.5 1.3V69c-.5.7-1.5 1.3-2.5 1.3zm11.6 1.8c3.1 0 5-2.3 5-5 0-2.8-1.9-5.1-5-5.1-3 0-5 2.3-5 5 0 2.8 2 5.1 5 5.1zm0-1.8c-1.8 0-2.8-1.5-2.8-3.2 0-1.7 1-3.2 2.8-3.2 1.8 0 2.8 1.5 2.8 3.2 0 1.7-1 3.2-2.8 3.2zm8 1.8c.8 0 1.5-.6 1.5-1.4 0-.7-.7-1.4-1.4-1.4-.8 0-1.4.7-1.4 1.4 0 .8.6 1.4 1.4 1.4zm8.2 0c1.9 0 3-.8 3.7-1.7l-1.4-1.3c-.5.8-1.3 1.2-2.2 1.2-1.8 0-3-1.4-3-3.2 0-2 1.2-3.2 3-3.2 1 0 1.7.3 2.2 1.1l1.4-1.3c-.7-.9-1.8-1.7-3.7-1.7-3 0-5 2.1-5 5 0 3 2 5.1 5 5.1zm9.8 0c3.1 0 5-2.3 5-5 0-2.8-1.9-5.1-5-5.1-3 0-5 2.3-5 5 0 2.8 2 5.1 5 5.1zm0-1.8c-1.7 0-2.7-1.5-2.7-3.2 0-1.7 1-3.2 2.7-3.2 1.8 0 2.8 1.5 2.8 3.2 0 1.7-1 3.2-2.8 3.2zm21 1.6v-7c0-2-1-2.9-2.7-2.9-1.5 0-2.7.9-3.3 1.8-.3-1-1.2-1.8-2.6-1.8-1.5 0-2.8 1-3.2 1.6v-1.4h-2V72h2v-6.7c.5-.7 1.3-1.3 2.2-1.3 1.2 0 1.6.7 1.6 1.7V72h2.1v-6.8a3 3 0 012.3-1.2c1.1 0 1.6.7 1.6 1.7V72h2z" fill="url(#l)"/><rect x="195.3" y="41.6" width="150.8" height="48.8" rx="4.1" stroke="url(#m)" stroke-width="1.2"/><rect x="326.6" y="77" width="22" height="22" rx="11" fill="url(#n)"/><path d="M332.3 88.5l2-2 1 1-2 2a2 2 0 002.9 2.9l2-2 1 1-2 2a3.4 3.4 0 11-4.9-5zm9.7-2l-2 2 1 1 2-2a3.4 3.4 0 00-4.9-4.8l-2 1.9 1 1 2-2a2 2 0 013 3z" fill="#fff"/><path d="M334.7 90a.7.7 0 101 1l4.9-5a.7.7 0 10-1-1l-4.9 5z" fill="#fff"/><rect x="163" y="123" width="117" height="72" rx="1.3" fill="url(#o)"/><rect x="163.5" y="123.5" width="116" height="71" rx=".8" stroke="url(#p)" stroke-opacity=".2"/><path fill-rule="evenodd" clip-rule="evenodd" d="M178.7 137h-8v-5.7h8v5.7zm42.3 0h-38.9v-5.7H221v5.7zm-50.3 17.2h8v-5.7h-8v5.7zm8 19.4h-8V168h8v5.7zm3.4-19.4h48v-5.7h-48v5.7zm30.9 19.4h-31V168h31v5.7z" fill="url(#q)"/><rect opacity=".1" x="167.4" y="142.9" width="95.9" height="15.4" rx=".8" fill="#00A5E4"/><path d="M256.7 136.6a.4.4 0 01-.7 0l-1-1.6a.4.4 0 01.3-.7h2.4c.3 0 .5.4.3.7l-1.2 1.6z" fill="#C7D2DD"/><path opacity=".1" fill="#0A93E4" d="M87.3 205H231v42H87.3z"/><g filter="url(#r)"><path d="M217.9 226.4c-.4.2-1 .2-1.5 0l-6.7 5.5a2.1 2.1 0 01-.8.4l-5.7 1.4c0 .1 0 .3-.3.5a1.3 1.3 0 01-.4.1 1.9 1.9 0 01-.9 0l7.7-5c.3.1.6.2.9.1l.4-.2c.4-.2.3-.6-.1-.8-.3-.2-.8-.2-1.1-.2a1.3 1.3 0 00-.4.2c-.4.2-.4.5-.1.7l-7.7 5c-.3-.3-.3-.6 0-.8l.5-.1h.4l1.7-3.5.6-.5 8.8-4.4c-.4-.3-.4-.6 0-.9l1.6-1.1c-.2-.3 0-.7.5-1l10.2-6.6c4.7-3.7 10.6-7.9 16.2-11.5a106.3 106.3 0 0113.7-7.6l3.7-2.5a2.6 2.6 0 011.8-.3l3-2c1.1-.7 2.2-.1 3.5.5 1.3.7 2.4 1.3 1.3 2l-3 2c.2.3 0 .7-.5 1l-4 2.6a1.6 1.6 0 00-.2.1l-1.6 1.4 1.4.7-2 1.3-1.2-.6a125 125 0 01-8 5.5 253.6 253.6 0 01-17.5 10.3l-10.7 6.8a2.6 2.6 0 01-1.8.4l-1.7 1z" fill="url(#s)"/><path d="M262 201.8l-.8-.4-19 12.2.8.5 19-12.3z" fill="url(#t)"/><path d="M244.4 211.7l-.6.1-1.1 1.4 2-1.3-.3-.2z" fill="url(#u)"/></g><path d="M126 235.1c-8.8-2.7 12.7-31.8 18.9-22 6.2 9.8-9.1 28.3-7.7 22.6 1.5-5.7 9.4-7.4 7.7-1.4-1.7 6 5.3-4.2 6.5-2.7 1.3 1.5 2.7-.5 2 3.5-.7 4 1.7-2.8 3.5-1.6s-8.6 2 5.2 1.6c13.8-.3 12.8.9 16.6-3.5 3.8-4.4-2.2-.8 2.7 2.4 4.8 3.2 9.7-1.2 19.1 1.1" stroke="#69737C" stroke-width="1.7" stroke-linecap="round" stroke-linejoin="round"/><path fill="#ADB5BD" d="M97.7 240.2h123v.7h-123z"/><path d="M210.6 222c-.2.4-.8.6-1.3.3l-3.3-2c-.5-.2-.7-.8-.4-1.2l34.5-59.7c.7-1.3 1.9-.7 3.3.1 1.3.8 2.4 1.5 1.7 2.8L210.6 222z" fill="url(#v)"/><g filter="url(#w)"><path transform="rotate(30 237 173.7)" fill="url(#x)" d="M237 173.7h4.2v2.8H237z"/></g><g filter="url(#y)"><path fill-rule="evenodd" clip-rule="evenodd" d="M241.9 175.9l-1-.5-13 22.4 1 .5 13-22.4zm-12.6 18.5a.3.3 0 00-.4.1l-.5 2.6 1.4-2.4-.5-.3z" fill="url(#z)"/></g><path fill-rule="evenodd" clip-rule="evenodd" d="M206.6 215.8a1.1 1.1 0 00.4 1.5l4.5 2.6a1.1 1.1 0 001.5-.4l7.5-13c4-5.7 8.5-12.6 12.3-19a101.5 101.5 0 007.5-15.2l3-5.1a1.1 1.1 0 00-.5-1.5l-4.5-2.6a1.1 1.1 0 00-1.5.4l-2.8 4.8a1.1 1.1 0 01-.2.2c-2.5 3-5.6 7.5-9.4 14.1-3.8 6.7-7.7 14.2-10.6 20.7l-7.2 12.5z" fill="url(#A)"/><mask id="a" style="mask-type:alpha" maskUnits="userSpaceOnUse" x="198" y="220" width="12" height="18"><path d="M205.2 232l4.1-9.7-3.3-2-6.4 8.5a1.8 1.8 0 00-.3 1l-.5 5.5a1 1 0 00-.6.5 1 1 0 00.1 1.1l5.2-9a1 1 0 01-.1-1.1 1 1 0 011.7 1 1 1 0 01-1.1.4l-5.2 9a1 1 0 001-.4 1 1 0 00.2-.8l4.6-3.2a1.8 1.8 0 00.6-.8z" fill="url(#B)"/></mask><g mask="url(#a)"><path d="M205.2 232l4.1-9.7-3.4-2-6.3 8.5a1.8 1.8 0 00-.3 1l-.5 5.5a1 1 0 00-.6.5 1 1 0 00.1 1.2l5.2-9a1 1 0 01-.1-1.2 1 1 0 011.7 1 1 1 0 01-1.1.4l-5.2 9a1 1 0 001-.4 1 1 0 00.1-.8l4.6-3.2.7-.8z" fill="url(#D)"/><path d="M204.3 217.9l-.2 5s1-1.9 2.6-1c.5.4 1.2 1.1.7 2.2A4652.9 4652.9 0 01201 237l3 1.2 9-15.4-8.9-5z" fill="url(#E)"/></g><g filter="url(#F)" fill="#A9B8C2"><path d="M1.6 29H16v1.7H1.6V29z"/><path fill-rule="evenodd" clip-rule="evenodd" d="M15.8 22.7a1 1 0 00-1.1.6c-.2.7-.9 2.6-2 2.9 0-.3 0-.9.2-1.1.3-1.4.6-2.3-.2-2.8-.6-.3-1.5-.7-2.4.4-.2.1-.3.4-.5.7a6 6 0 01-2 2.5s-.7.3-.9.2a2 2 0 01-.8-.4l-.2-.3c4.6-4.4 4.8-8.1 4.7-9.3 0-1.2-.4-2-1-2.5H9c-2.5.5-4 3.4-4.8 9.2v.3c-.1.4-.3 1.1-.2 1.9l-.7.6-1 .9v-.6c.3-.5.3-1-.2-1.3-.4-.2-1-.1-1.2.3-.6.9-.7 2.3.2 3 .2.1.5.3 1 .3s1.4-.4 2.4-1.3l.2-.2.2.3c.3.3 1.3 1 2 1 .6 0 1.7-.4 2.1-.7a7 7 0 002.1-2.5c-.3 1.4-.5 2.3 0 2.9.1.2.5.4.7.4 2.1.2 3.8-1.4 4.6-4.3.2-.5-.2-1-.6-1.1zm-7-7.2l.2 1c0 .8-.3 3.3-3 6.5.4-3 1.2-6.6 2.8-7.5zm8.7 5.4c0 .6-.5 1-1.2 1s-1.2-.4-1.2-1 .5-1.2 1.2-1.2c.6 0 1.2.6 1.2 1.2z"/></g><g filter="url(#G)" fill="#A9B8C2"><path d="M5.3 59h7.5v2H5.2v-2zm0-3.7h7.5v1.9H5.2v-1.9zm0 7.5H9v1.9H5.2v-1.9z"/><path fill-rule="evenodd" clip-rule="evenodd" d="M16.2 51.5a3.3 3.3 0 00-.2-.3 1.9 1.9 0 00-.6-.4 2 2 0 00-.8-.2H3.4c-1 0-1.9.9-1.9 1.9v15A1.9 1.9 0 003 69.4h11.6c1 0 1.9-.9 1.9-1.9v-15a2 2 0 00-.3-1zm-1.6 16H3.4v-15h11.2v15z"/></g><g filter="url(#H)" fill-rule="evenodd" clip-rule="evenodd" fill="#A9B8C2"><path d="M15.7 89.6H2.3c-1 0-1.7.7-1.7 1.7v13.5c0 .9.7 1.6 1.6 1.6h13.5a1.7 1.7 0 001.7-1.7V91.3a1.7 1.7 0 00-1.7-1.6zM2.3 104.8V91.3h13.4v13.5H2.3z"/><path d="M8 99l-1.8-2L5 98.3l3.2 3.2 4.8-5.7-1.3-1.1L8.1 99z"/></g><g filter="url(#I)"><path fill-rule="evenodd" clip-rule="evenodd" d="M9 127.6a8.4 8.4 0 100 16.8 8.4 8.4 0 000-16.8zm0 14.7a6.3 6.3 0 116.3-6.3 6.3 6.3 0 01-6.3 6.3zm3.4-6.3a3.4 3.4 0 11-3.4-3.4 3.5 3.5 0 013.4 3.4z" fill="#A9B8C2"/></g></g><defs><linearGradient id="b" x1="94" y1="235" x2="94" y2="0" gradientUnits="userSpaceOnUse"><stop stop-color="#E1EAF0"/><stop offset="1" stop-color="#F8FBFD"/></linearGradient><linearGradient id="d" x1="170.1" y1="38" x2="148.8" y2="249.8" gradientUnits="userSpaceOnUse"><stop stop-color="#364F7F" stop-opacity=".5"/><stop offset=".2" stop-color="#364F7F" stop-opacity=".3"/><stop offset="1" stop-color="#364F7F" stop-opacity=".3"/></linearGradient><linearGradient id="e" x1="155.1" y1="22.3" x2="155.1" y2="263.7" gradientUnits="userSpaceOnUse"><stop stop-color="#fff"/><stop offset="1" stop-color="#F1F6FB"/></linearGradient><linearGradient id="f" x1="155.1" y1="22.3" x2="155.1" y2="263.7" gradientUnits="userSpaceOnUse"><stop stop-color="#D0D7DD" stop-opacity=".5"/><stop offset="1" stop-color="#C7D4DF"/></linearGradient><linearGradient id="g" x1="63.1" y1="99.3" x2="63.1" y2="-232.9" gradientUnits="userSpaceOnUse"><stop stop-color="#D0DBE7"/><stop offset="1" stop-color="#E9EEF3"/></linearGradient><linearGradient id="h" x1="106.2" y1="190" x2="89.5" y2="107" gradientUnits="userSpaceOnUse"><stop stop-color="#D0DBE7"/><stop offset="1" stop-color="#E9EEF3"/></linearGradient><linearGradient id="j" x1="244.1" y1="70" x2="176.6" y2="109.3" gradientUnits="userSpaceOnUse"><stop stop-color="#364F7F" stop-opacity=".3"/><stop offset="1" stop-color="#364F7F" stop-opacity=".1"/></linearGradient><linearGradient id="k" x1="270.6" y1="41" x2="270.6" y2="91" gradientUnits="userSpaceOnUse"><stop stop-color="#fff"/><stop offset="1" stop-color="#FBFDFF"/></linearGradient><linearGradient id="l" x1="270.6" y1="49" x2="270.6" y2="83" gradientUnits="userSpaceOnUse"><stop stop-color="#76ADCA"/><stop offset="1" stop-color="#8796A8"/></linearGradient><linearGradient id="m" x1="270.6" y1="41" x2="270.6" y2="91" gradientUnits="userSpaceOnUse"><stop stop-color="#D0D7DD" stop-opacity=".5"/><stop offset="1" stop-color="#C7D5DF"/></linearGradient><linearGradient id="n" x1="337.8" y1="77.1" x2="337.8" y2="99" gradientUnits="userSpaceOnUse"><stop stop-color="#99E6FF"/><stop offset="0" stop-color="#0AB8F4"/><stop offset="1" stop-color="#1494D6"/><stop offset="1" stop-color="#0971AA"/></linearGradient><linearGradient id="o" x1="221.5" y1="123" x2="221.5" y2="195" gradientUnits="userSpaceOnUse"><stop stop-color="#fff"/><stop offset="1" stop-color="#fff" stop-opacity=".7"/></linearGradient><linearGradient id="p" x1="221.5" y1="123" x2="221.5" y2="195" gradientUnits="userSpaceOnUse"><stop stop-color="#ADB5BD"/><stop offset="1" stop-color="#ADB5BD" stop-opacity="0"/></linearGradient><linearGradient id="q" x1="175.4" y1="173.6" x2="175.4" y2="71.9" gradientUnits="userSpaceOnUse"><stop stop-color="#D0DBE7"/><stop offset=".5" stop-color="#E9EEF3"/></linearGradient><linearGradient id="s" x1="261.6" y1="195.5" x2="200.9" y2="198.6" gradientUnits="userSpaceOnUse"><stop stop-color="#FFFBF2" stop-opacity=".4"/><stop offset="1" stop-color="#818A9D"/></linearGradient><linearGradient id="t" x1="261.6" y1="195.5" x2="200.9" y2="198.6" gradientUnits="userSpaceOnUse"><stop stop-color="#FFFBF2" stop-opacity=".4"/><stop offset="1" stop-color="#818A9D"/></linearGradient><linearGradient id="u" x1="261.6" y1="195.5" x2="200.9" y2="198.6" gradientUnits="userSpaceOnUse"><stop stop-color="#FFFBF2" stop-opacity=".4"/><stop offset="1" stop-color="#818A9D"/></linearGradient><linearGradient id="v" x1="223.3" y1="188.5" x2="228.3" y2="191.4" gradientUnits="userSpaceOnUse"><stop offset=".3" stop-color="#80858F"/><stop offset=".7" stop-color="#363E55"/><stop offset="1" stop-color="#495E6A"/></linearGradient><linearGradient id="x" x1="237" y1="174.3" x2="241.2" y2="174.3" gradientUnits="userSpaceOnUse"><stop offset=".5" stop-color="#D2A054"/><stop offset=".9" stop-color="#C98434"/><stop offset="1" stop-color="#827468"/></linearGradient><linearGradient id="z" x1="238.3" y1="179.8" x2="239.3" y2="180.4" gradientUnits="userSpaceOnUse"><stop offset="0" stop-color="#8D7961"/><stop offset=".1" stop-color="#39312B"/><stop offset=".4" stop-color="#E6830F"/><stop offset=".5" stop-color="#F1B150"/><stop offset="1" stop-color="#FAC54F"/></linearGradient><linearGradient id="B" x1="200.4" y1="227.6" x2="205.9" y2="230.8" gradientUnits="userSpaceOnUse"><stop stop-color="#F7F8FA"/><stop offset=".8" stop-color="#D3D8E4"/><stop offset="1" stop-color="#E9DBD9"/></linearGradient><linearGradient id="D" x1="200.3" y1="227.6" x2="205.9" y2="230.8" gradientUnits="userSpaceOnUse"><stop stop-color="#B6BDC9"/><stop offset=".4" stop-color="#C4CED8"/><stop offset=".6" stop-color="#ADB1BA"/><stop offset="1" stop-color="#E4D7B5"/></linearGradient><linearGradient id="E" x1="199.8" y1="225.6" x2="207.6" y2="230.1" gradientUnits="userSpaceOnUse"><stop offset=".2" stop-color="#CCD4DE"/><stop offset=".5" stop-color="#7C8089"/><stop offset=".7" stop-color="#999FA9"/><stop offset="1" stop-color="#B9A58D"/></linearGradient><filter id="c" x="40" y="8" width="186" height="233" filterUnits="userSpaceOnUse" color-interpolation-filters="sRGB"><feFlood flood-opacity="0" result="BackgroundImageFix"/><feBlend in="SourceGraphic" in2="BackgroundImageFix" result="shape"/><feGaussianBlur stdDeviation="2" result="effect1_foregroundBlur_1025_76757"/></filter><filter id="i" x="155" y="31" width="102" height="146" filterUnits="userSpaceOnUse" color-interpolation-filters="sRGB"><feFlood flood-opacity="0" result="BackgroundImageFix"/><feBlend in="SourceGraphic" in2="BackgroundImageFix" result="shape"/><feGaussianBlur stdDeviation="2" result="effect1_foregroundBlur_1025_76757"/></filter><filter id="r" x="195.9" y="185.9" width="78.3" height="53.5" filterUnits="userSpaceOnUse" color-interpolation-filters="sRGB"><feFlood flood-opacity="0" result="BackgroundImageFix"/><feBlend in="SourceGraphic" in2="BackgroundImageFix" result="shape"/><feGaussianBlur stdDeviation="2.5" result="effect1_foregroundBlur_1025_76757"/></filter><filter id="w" x="235.6" y="173.4" width="5.2" height="5" filterUnits="userSpaceOnUse" color-interpolation-filters="sRGB"><feFlood flood-opacity="0" result="BackgroundImageFix"/><feBlend in="SourceGraphic" in2="BackgroundImageFix" result="shape"/><feColorMatrix in="SourceAlpha" values="0 0 0 0 0 0 0 0 0 0 0 0 0 0 0 0 0 0 127 0" result="hardAlpha"/><feOffset dy="-.3"/><feGaussianBlur stdDeviation=".2"/><feComposite in2="hardAlpha" operator="arithmetic" k2="-1" k3="1"/><feColorMatrix values="0 0 0 0 0.5375 0 0 0 0 0.34185 0 0 0 0 0.16125 0 0 0 0.55 0"/><feBlend in2="shape" result="effect1_innerShadow_1025_76757"/><feColorMatrix in="SourceAlpha" values="0 0 0 0 0 0 0 0 0 0 0 0 0 0 0 0 0 0 127 0" result="hardAlpha"/><feOffset dx=".7" dy=".2"/><feGaussianBlur stdDeviation=".1"/><feComposite in2="hardAlpha" operator="arithmetic" k2="-1" k3="1"/><feColorMatrix values="0 0 0 0 0.958333 0 0 0 0 0.875517 0 0 0 0 0.714757 0 0 0 0.65 0"/><feBlend in2="effect1_innerShadow_1025_76757" result="effect2_innerShadow_1025_76757"/></filter><filter id="y" x="228" y="175.1" width="13.9" height="23.2" filterUnits="userSpaceOnUse" color-interpolation-filters="sRGB"><feFlood flood-opacity="0" result="BackgroundImageFix"/><feBlend in="SourceGraphic" in2="BackgroundImageFix" result="shape"/><feColorMatrix in="SourceAlpha" values="0 0 0 0 0 0 0 0 0 0 0 0 0 0 0 0 0 0 127 0" result="hardAlpha"/><feOffset dy="-.3"/><feGaussianBlur stdDeviation=".2"/><feComposite in2="hardAlpha" operator="arithmetic" k2="-1" k3="1"/><feColorMatrix values="0 0 0 0 0.5375 0 0 0 0 0.34185 0 0 0 0 0.16125 0 0 0 0.55 0"/><feBlend in2="shape" result="effect1_innerShadow_1025_76757"/></filter><filter id="F" x="-22" y="-5" width="62" height="62" filterUnits="userSpaceOnUse" color-interpolation-filters="sRGB"><feFlood flood-opacity="0" result="BackgroundImageFix"/><feColorMatrix in="SourceAlpha" values="0 0 0 0 0 0 0 0 0 0 0 0 0 0 0 0 0 0 127 0" result="hardAlpha"/><feOffset dy="8"/><feGaussianBlur stdDeviation="6"/><feColorMatrix values="0 0 0 0 0.101961 0 0 0 0 0.286275 0 0 0 0 0.443137 0 0 0 0.06 0"/><feBlend in2="BackgroundImageFix" result="effect1_dropShadow_1025_76757"/><feColorMatrix in="SourceAlpha" values="0 0 0 0 0 0 0 0 0 0 0 0 0 0 0 0 0 0 127 0" result="hardAlpha"/><feOffset dy="4"/><feGaussianBlur stdDeviation="8"/><feColorMatrix values="0 0 0 0 0.101961 0 0 0 0 0.286275 0 0 0 0 0.443137 0 0 0 0.04 0"/><feBlend in2="effect1_dropShadow_1025_76757" result="effect2_dropShadow_1025_76757"/><feBlend in="SourceGraphic" in2="effect2_dropShadow_1025_76757" result="shape"/></filter><filter id="G" x="-22" y="33" width="62" height="62" filterUnits="userSpaceOnUse" color-interpolation-filters="sRGB"><feFlood flood-opacity="0" result="BackgroundImageFix"/><feColorMatrix in="SourceAlpha" values="0 0 0 0 0 0 0 0 0 0 0 0 0 0 0 0 0 0 127 0" result="hardAlpha"/><feOffset dy="8"/><feGaussianBlur stdDeviation="6"/><feColorMatrix values="0 0 0 0 0.101961 0 0 0 0 0.286275 0 0 0 0 0.443137 0 0 0 0.06 0"/><feBlend in2="BackgroundImageFix" result="effect1_dropShadow_1025_76757"/><feColorMatrix in="SourceAlpha" values="0 0 0 0 0 0 0 0 0 0 0 0 0 0 0 0 0 0 127 0" result="hardAlpha"/><feOffset dy="4"/><feGaussianBlur stdDeviation="8"/><feColorMatrix values="0 0 0 0 0.101961 0 0 0 0 0.286275 0 0 0 0 0.443137 0 0 0 0.04 0"/><feBlend in2="effect1_dropShadow_1025_76757" result="effect2_dropShadow_1025_76757"/><feBlend in="SourceGraphic" in2="effect2_dropShadow_1025_76757" result="shape"/></filter><filter id="H" x="-22" y="71" width="62" height="62" filterUnits="userSpaceOnUse" color-interpolation-filters="sRGB"><feFlood flood-opacity="0" result="BackgroundImageFix"/><feColorMatrix in="SourceAlpha" values="0 0 0 0 0 0 0 0 0 0 0 0 0 0 0 0 0 0 127 0" result="hardAlpha"/><feOffset dy="8"/><feGaussianBlur stdDeviation="6"/><feColorMatrix values="0 0 0 0 0.101961 0 0 0 0 0.286275 0 0 0 0 0.443137 0 0 0 0.06 0"/><feBlend in2="BackgroundImageFix" result="effect1_dropShadow_1025_76757"/><feColorMatrix in="SourceAlpha" values="0 0 0 0 0 0 0 0 0 0 0 0 0 0 0 0 0 0 127 0" result="hardAlpha"/><feOffset dy="4"/><feGaussianBlur stdDeviation="8"/><feColorMatrix values="0 0 0 0 0.101961 0 0 0 0 0.286275 0 0 0 0 0.443137 0 0 0 0.04 0"/><feBlend in2="effect1_dropShadow_1025_76757" result="effect2_dropShadow_1025_76757"/><feBlend in="SourceGraphic" in2="effect2_dropShadow_1025_76757" result="shape"/></filter><filter id="I" x="-22" y="109" width="62" height="62" filterUnits="userSpaceOnUse" color-interpolation-filters="sRGB"><feFlood flood-opacity="0" result="BackgroundImageFix"/><feColorMatrix in="SourceAlpha" values="0 0 0 0 0 0 0 0 0 0 0 0 0 0 0 0 0 0 127 0" result="hardAlpha"/><feOffset dy="8"/><feGaussianBlur stdDeviation="6"/><feColorMatrix values="0 0 0 0 0.101961 0 0 0 0 0.286275 0 0 0 0 0.443137 0 0 0 0.06 0"/><feBlend in2="BackgroundImageFix" result="effect1_dropShadow_1025_76757"/><feColorMatrix in="SourceAlpha" values="0 0 0 0 0 0 0 0 0 0 0 0 0 0 0 0 0 0 127 0" result="hardAlpha"/><feOffset dy="4"/><feGaussianBlur stdDeviation="8"/><feColorMatrix values="0 0 0 0 0.101961 0 0 0 0 0.286275 0 0 0 0 0.443137 0 0 0 0.04 0"/><feBlend in2="effect1_dropShadow_1025_76757" result="effect2_dropShadow_1025_76757"/><feBlend in="SourceGraphic" in2="effect2_dropShadow_1025_76757" result="shape"/></filter><radialGradient id="A" cx="0" cy="0" r="1" gradientUnits="userSpaceOnUse" gradientTransform="matrix(10.68661 6.07084 -30.87873 54.35639 220.006 188.913)"><stop stop-color="#BAC2CA"/><stop offset=".3" stop-color="#8F95A6"/><stop offset=".7" stop-color="#4B4F58"/><stop offset="1" stop-color="#B2BECB"/></radialGradient><clipPath id="a"><path fill="#fff" d="M0 0h349v266H0z"/></clipPath></defs></svg>